<?xml version="1.0" encoding="utf-8" standalone="no"?>
<!DOCTYPE svg PUBLIC "-//W3C//DTD SVG 1.1//EN"
        "http://www.w3.org/Graphics/SVG/1.1/DTD/svg11.dtd">
<!-- Created with matplotlib (http://matplotlib.org/) -->
<svg xmlns:xlink="http://www.w3.org/1999/xlink" height="345pt" version="1.1" viewBox="0 0 460 345" width="460pt"
     xmlns="http://www.w3.org/2000/svg">
    <defs>
        <style type="text/css">
            *{stroke-linecap:butt;stroke-linejoin:round;}
        </style>
    </defs>
    <g id="figure_1">
        <g id="patch_1">
            <path d="M 0 345.6
L 460.8 345.6 
L 460.8 0 
L 0 0 
z
" style="fill:#ffffff;"/>
        </g>
        <g id="axes_1">
            <g id="patch_2">
                <path d="M 57.6 307.584
L 414.72 307.584 
L 414.72 41.472 
L 57.6 41.472 
z
" style="fill:#ffffff;"/>
            </g>
            <g id="matplotlib.axis_1">
                <g id="xtick_1">
                    <g id="line2d_1">
                        <defs>
                            <path d="M 0 0
L 0 3.5 
" id="m838b3dcfcf" style="stroke:#000000;stroke-width:0.8;"/>
                        </defs>
                        <g>
                            <use style="stroke:#000000;stroke-width:0.8;" x="73.832727" xlink:href="#m838b3dcfcf"
                                 y="307.584"/>
                        </g>
                    </g>
                    <g id="text_1">
                        <!-- 0 -->
                        <defs>
                            <path d="M 31.78125 66.40625
Q 24.171875 66.40625 20.328125 58.90625 
Q 16.5 51.421875 16.5 36.375 
Q 16.5 21.390625 20.328125 13.890625 
Q 24.171875 6.390625 31.78125 6.390625 
Q 39.453125 6.390625 43.28125 13.890625 
Q 47.125 21.390625 47.125 36.375 
Q 47.125 51.421875 43.28125 58.90625 
Q 39.453125 66.40625 31.78125 66.40625 
z
M 31.78125 74.21875 
Q 44.046875 74.21875 50.515625 64.515625 
Q 56.984375 54.828125 56.984375 36.375 
Q 56.984375 17.96875 50.515625 8.265625 
Q 44.046875 -1.421875 31.78125 -1.421875 
Q 19.53125 -1.421875 13.0625 8.265625 
Q 6.59375 17.96875 6.59375 36.375 
Q 6.59375 54.828125 13.0625 64.515625 
Q 19.53125 74.21875 31.78125 74.21875 
z
" id="DejaVuSans-30"/>
                        </defs>
                        <g transform="translate(70.651477 322.182437)scale(0.1 -0.1)">
                            <use xlink:href="#DejaVuSans-30"/>
                        </g>
                    </g>
                </g>
                <g id="xtick_2">
                    <g id="line2d_2">
                        <g>
                            <use style="stroke:#000000;stroke-width:0.8;" x="137.490481" xlink:href="#m838b3dcfcf"
                                 y="307.584"/>
                        </g>
                    </g>
                    <g id="text_2">
                        <!-- 50 -->
                        <defs>
                            <path d="M 10.796875 72.90625
L 49.515625 72.90625 
L 49.515625 64.59375 
L 19.828125 64.59375 
L 19.828125 46.734375 
Q 21.96875 47.46875 24.109375 47.828125 
Q 26.265625 48.1875 28.421875 48.1875 
Q 40.625 48.1875 47.75 41.5 
Q 54.890625 34.8125 54.890625 23.390625 
Q 54.890625 11.625 47.5625 5.09375 
Q 40.234375 -1.421875 26.90625 -1.421875 
Q 22.3125 -1.421875 17.546875 -0.640625 
Q 12.796875 0.140625 7.71875 1.703125 
L 7.71875 11.625 
Q 12.109375 9.234375 16.796875 8.0625 
Q 21.484375 6.890625 26.703125 6.890625 
Q 35.15625 6.890625 40.078125 11.328125 
Q 45.015625 15.765625 45.015625 23.390625 
Q 45.015625 31 40.078125 35.4375 
Q 35.15625 39.890625 26.703125 39.890625 
Q 22.75 39.890625 18.8125 39.015625 
Q 14.890625 38.140625 10.796875 36.28125 
z
" id="DejaVuSans-35"/>
                        </defs>
                        <g transform="translate(131.127981 322.182437)scale(0.1 -0.1)">
                            <use xlink:href="#DejaVuSans-35"/>
                            <use x="63.623047" xlink:href="#DejaVuSans-30"/>
                        </g>
                    </g>
                </g>
                <g id="xtick_3">
                    <g id="line2d_3">
                        <g>
                            <use style="stroke:#000000;stroke-width:0.8;" x="201.148235" xlink:href="#m838b3dcfcf"
                                 y="307.584"/>
                        </g>
                    </g>
                    <g id="text_3">
                        <!-- 100 -->
                        <defs>
                            <path d="M 12.40625 8.296875
L 28.515625 8.296875 
L 28.515625 63.921875 
L 10.984375 60.40625 
L 10.984375 69.390625 
L 28.421875 72.90625 
L 38.28125 72.90625 
L 38.28125 8.296875 
L 54.390625 8.296875 
L 54.390625 0 
L 12.40625 0 
z
" id="DejaVuSans-31"/>
                        </defs>
                        <g transform="translate(191.604485 322.182437)scale(0.1 -0.1)">
                            <use xlink:href="#DejaVuSans-31"/>
                            <use x="63.623047" xlink:href="#DejaVuSans-30"/>
                            <use x="127.246094" xlink:href="#DejaVuSans-30"/>
                        </g>
                    </g>
                </g>
                <g id="xtick_4">
                    <g id="line2d_4">
                        <g>
                            <use style="stroke:#000000;stroke-width:0.8;" x="264.805989" xlink:href="#m838b3dcfcf"
                                 y="307.584"/>
                        </g>
                    </g>
                    <g id="text_4">
                        <!-- 150 -->
                        <g transform="translate(255.262239 322.182437)scale(0.1 -0.1)">
                            <use xlink:href="#DejaVuSans-31"/>
                            <use x="63.623047" xlink:href="#DejaVuSans-35"/>
                            <use x="127.246094" xlink:href="#DejaVuSans-30"/>
                        </g>
                    </g>
                </g>
                <g id="xtick_5">
                    <g id="line2d_5">
                        <g>
                            <use style="stroke:#000000;stroke-width:0.8;" x="328.463743" xlink:href="#m838b3dcfcf"
                                 y="307.584"/>
                        </g>
                    </g>
                    <g id="text_5">
                        <!-- 200 -->
                        <defs>
                            <path d="M 19.1875 8.296875
L 53.609375 8.296875 
L 53.609375 0 
L 7.328125 0 
L 7.328125 8.296875 
Q 12.9375 14.109375 22.625 23.890625 
Q 32.328125 33.6875 34.8125 36.53125 
Q 39.546875 41.84375 41.421875 45.53125 
Q 43.3125 49.21875 43.3125 52.78125 
Q 43.3125 58.59375 39.234375 62.25 
Q 35.15625 65.921875 28.609375 65.921875 
Q 23.96875 65.921875 18.8125 64.3125 
Q 13.671875 62.703125 7.8125 59.421875 
L 7.8125 69.390625 
Q 13.765625 71.78125 18.9375 73 
Q 24.125 74.21875 28.421875 74.21875 
Q 39.75 74.21875 46.484375 68.546875 
Q 53.21875 62.890625 53.21875 53.421875 
Q 53.21875 48.921875 51.53125 44.890625 
Q 49.859375 40.875 45.40625 35.40625 
Q 44.1875 33.984375 37.640625 27.21875 
Q 31.109375 20.453125 19.1875 8.296875 
z
" id="DejaVuSans-32"/>
                        </defs>
                        <g transform="translate(318.919993 322.182437)scale(0.1 -0.1)">
                            <use xlink:href="#DejaVuSans-32"/>
                            <use x="63.623047" xlink:href="#DejaVuSans-30"/>
                            <use x="127.246094" xlink:href="#DejaVuSans-30"/>
                        </g>
                    </g>
                </g>
                <g id="xtick_6">
                    <g id="line2d_6">
                        <g>
                            <use style="stroke:#000000;stroke-width:0.8;" x="392.121497" xlink:href="#m838b3dcfcf"
                                 y="307.584"/>
                        </g>
                    </g>
                    <g id="text_6">
                        <!-- 250 -->
                        <g transform="translate(382.577747 322.182437)scale(0.1 -0.1)">
                            <use xlink:href="#DejaVuSans-32"/>
                            <use x="63.623047" xlink:href="#DejaVuSans-35"/>
                            <use x="127.246094" xlink:href="#DejaVuSans-30"/>
                        </g>
                    </g>
                </g>
            </g>
            <g id="matplotlib.axis_2">
                <g id="ytick_1">
                    <g id="line2d_7">
                        <defs>
                            <path d="M 0 0
L -3.5 0 
" id="mb9dabe225d" style="stroke:#000000;stroke-width:0.8;"/>
                        </defs>
                        <g>
                            <use style="stroke:#000000;stroke-width:0.8;" x="57.6" xlink:href="#mb9dabe225d"
                                 y="295.488"/>
                        </g>
                    </g>
                    <g id="text_7">
                        <!-- 0.000 -->
                        <defs>
                            <path d="M 10.6875 12.40625
L 21 12.40625 
L 21 0 
L 10.6875 0 
z
" id="DejaVuSans-2e"/>
                        </defs>
                        <g transform="translate(21.971875 299.287219)scale(0.1 -0.1)">
                            <use xlink:href="#DejaVuSans-30"/>
                            <use x="63.623047" xlink:href="#DejaVuSans-2e"/>
                            <use x="95.410156" xlink:href="#DejaVuSans-30"/>
                            <use x="159.033203" xlink:href="#DejaVuSans-30"/>
                            <use x="222.65625" xlink:href="#DejaVuSans-30"/>
                        </g>
                    </g>
                </g>
                <g id="ytick_2">
                    <g id="line2d_8">
                        <g>
                            <use style="stroke:#000000;stroke-width:0.8;" x="57.6" xlink:href="#mb9dabe225d"
                                 y="262.789037"/>
                        </g>
                    </g>
                    <g id="text_8">
                        <!-- 0.002 -->
                        <g transform="translate(21.971875 266.588256)scale(0.1 -0.1)">
                            <use xlink:href="#DejaVuSans-30"/>
                            <use x="63.623047" xlink:href="#DejaVuSans-2e"/>
                            <use x="95.410156" xlink:href="#DejaVuSans-30"/>
                            <use x="159.033203" xlink:href="#DejaVuSans-30"/>
                            <use x="222.65625" xlink:href="#DejaVuSans-32"/>
                        </g>
                    </g>
                </g>
                <g id="ytick_3">
                    <g id="line2d_9">
                        <g>
                            <use style="stroke:#000000;stroke-width:0.8;" x="57.6" xlink:href="#mb9dabe225d"
                                 y="230.090075"/>
                        </g>
                    </g>
                    <g id="text_9">
                        <!-- 0.004 -->
                        <defs>
                            <path d="M 37.796875 64.3125
L 12.890625 25.390625 
L 37.796875 25.390625 
z
M 35.203125 72.90625 
L 47.609375 72.90625 
L 47.609375 25.390625 
L 58.015625 25.390625 
L 58.015625 17.1875 
L 47.609375 17.1875 
L 47.609375 0 
L 37.796875 0 
L 37.796875 17.1875 
L 4.890625 17.1875 
L 4.890625 26.703125 
z
" id="DejaVuSans-34"/>
                        </defs>
                        <g transform="translate(21.971875 233.889293)scale(0.1 -0.1)">
                            <use xlink:href="#DejaVuSans-30"/>
                            <use x="63.623047" xlink:href="#DejaVuSans-2e"/>
                            <use x="95.410156" xlink:href="#DejaVuSans-30"/>
                            <use x="159.033203" xlink:href="#DejaVuSans-30"/>
                            <use x="222.65625" xlink:href="#DejaVuSans-34"/>
                        </g>
                    </g>
                </g>
                <g id="ytick_4">
                    <g id="line2d_10">
                        <g>
                            <use style="stroke:#000000;stroke-width:0.8;" x="57.6" xlink:href="#mb9dabe225d"
                                 y="197.391112"/>
                        </g>
                    </g>
                    <g id="text_10">
                        <!-- 0.006 -->
                        <defs>
                            <path d="M 33.015625 40.375
Q 26.375 40.375 22.484375 35.828125 
Q 18.609375 31.296875 18.609375 23.390625 
Q 18.609375 15.53125 22.484375 10.953125 
Q 26.375 6.390625 33.015625 6.390625 
Q 39.65625 6.390625 43.53125 10.953125 
Q 47.40625 15.53125 47.40625 23.390625 
Q 47.40625 31.296875 43.53125 35.828125 
Q 39.65625 40.375 33.015625 40.375 
z
M 52.59375 71.296875 
L 52.59375 62.3125 
Q 48.875 64.0625 45.09375 64.984375 
Q 41.3125 65.921875 37.59375 65.921875 
Q 27.828125 65.921875 22.671875 59.328125 
Q 17.53125 52.734375 16.796875 39.40625 
Q 19.671875 43.65625 24.015625 45.921875 
Q 28.375 48.1875 33.59375 48.1875 
Q 44.578125 48.1875 50.953125 41.515625 
Q 57.328125 34.859375 57.328125 23.390625 
Q 57.328125 12.15625 50.6875 5.359375 
Q 44.046875 -1.421875 33.015625 -1.421875 
Q 20.359375 -1.421875 13.671875 8.265625 
Q 6.984375 17.96875 6.984375 36.375 
Q 6.984375 53.65625 15.1875 63.9375 
Q 23.390625 74.21875 37.203125 74.21875 
Q 40.921875 74.21875 44.703125 73.484375 
Q 48.484375 72.75 52.59375 71.296875 
z
" id="DejaVuSans-36"/>
                        </defs>
                        <g transform="translate(21.971875 201.190331)scale(0.1 -0.1)">
                            <use xlink:href="#DejaVuSans-30"/>
                            <use x="63.623047" xlink:href="#DejaVuSans-2e"/>
                            <use x="95.410156" xlink:href="#DejaVuSans-30"/>
                            <use x="159.033203" xlink:href="#DejaVuSans-30"/>
                            <use x="222.65625" xlink:href="#DejaVuSans-36"/>
                        </g>
                    </g>
                </g>
                <g id="ytick_5">
                    <g id="line2d_11">
                        <g>
                            <use style="stroke:#000000;stroke-width:0.8;" x="57.6" xlink:href="#mb9dabe225d"
                                 y="164.692149"/>
                        </g>
                    </g>
                    <g id="text_11">
                        <!-- 0.008 -->
                        <defs>
                            <path d="M 31.78125 34.625
Q 24.75 34.625 20.71875 30.859375 
Q 16.703125 27.09375 16.703125 20.515625 
Q 16.703125 13.921875 20.71875 10.15625 
Q 24.75 6.390625 31.78125 6.390625 
Q 38.8125 6.390625 42.859375 10.171875 
Q 46.921875 13.96875 46.921875 20.515625 
Q 46.921875 27.09375 42.890625 30.859375 
Q 38.875 34.625 31.78125 34.625 
z
M 21.921875 38.8125 
Q 15.578125 40.375 12.03125 44.71875 
Q 8.5 49.078125 8.5 55.328125 
Q 8.5 64.0625 14.71875 69.140625 
Q 20.953125 74.21875 31.78125 74.21875 
Q 42.671875 74.21875 48.875 69.140625 
Q 55.078125 64.0625 55.078125 55.328125 
Q 55.078125 49.078125 51.53125 44.71875 
Q 48 40.375 41.703125 38.8125 
Q 48.828125 37.15625 52.796875 32.3125 
Q 56.78125 27.484375 56.78125 20.515625 
Q 56.78125 9.90625 50.3125 4.234375 
Q 43.84375 -1.421875 31.78125 -1.421875 
Q 19.734375 -1.421875 13.25 4.234375 
Q 6.78125 9.90625 6.78125 20.515625 
Q 6.78125 27.484375 10.78125 32.3125 
Q 14.796875 37.15625 21.921875 38.8125 
z
M 18.3125 54.390625 
Q 18.3125 48.734375 21.84375 45.5625 
Q 25.390625 42.390625 31.78125 42.390625 
Q 38.140625 42.390625 41.71875 45.5625 
Q 45.3125 48.734375 45.3125 54.390625 
Q 45.3125 60.0625 41.71875 63.234375 
Q 38.140625 66.40625 31.78125 66.40625 
Q 25.390625 66.40625 21.84375 63.234375 
Q 18.3125 60.0625 18.3125 54.390625 
z
" id="DejaVuSans-38"/>
                        </defs>
                        <g transform="translate(21.971875 168.491368)scale(0.1 -0.1)">
                            <use xlink:href="#DejaVuSans-30"/>
                            <use x="63.623047" xlink:href="#DejaVuSans-2e"/>
                            <use x="95.410156" xlink:href="#DejaVuSans-30"/>
                            <use x="159.033203" xlink:href="#DejaVuSans-30"/>
                            <use x="222.65625" xlink:href="#DejaVuSans-38"/>
                        </g>
                    </g>
                </g>
                <g id="ytick_6">
                    <g id="line2d_12">
                        <g>
                            <use style="stroke:#000000;stroke-width:0.8;" x="57.6" xlink:href="#mb9dabe225d"
                                 y="131.993186"/>
                        </g>
                    </g>
                    <g id="text_12">
                        <!-- 0.010 -->
                        <g transform="translate(21.971875 135.792405)scale(0.1 -0.1)">
                            <use xlink:href="#DejaVuSans-30"/>
                            <use x="63.623047" xlink:href="#DejaVuSans-2e"/>
                            <use x="95.410156" xlink:href="#DejaVuSans-30"/>
                            <use x="159.033203" xlink:href="#DejaVuSans-31"/>
                            <use x="222.65625" xlink:href="#DejaVuSans-30"/>
                        </g>
                    </g>
                </g>
                <g id="ytick_7">
                    <g id="line2d_13">
                        <g>
                            <use style="stroke:#000000;stroke-width:0.8;" x="57.6" xlink:href="#mb9dabe225d"
                                 y="99.294223"/>
                        </g>
                    </g>
                    <g id="text_13">
                        <!-- 0.012 -->
                        <g transform="translate(21.971875 103.093442)scale(0.1 -0.1)">
                            <use xlink:href="#DejaVuSans-30"/>
                            <use x="63.623047" xlink:href="#DejaVuSans-2e"/>
                            <use x="95.410156" xlink:href="#DejaVuSans-30"/>
                            <use x="159.033203" xlink:href="#DejaVuSans-31"/>
                            <use x="222.65625" xlink:href="#DejaVuSans-32"/>
                        </g>
                    </g>
                </g>
                <g id="ytick_8">
                    <g id="line2d_14">
                        <g>
                            <use style="stroke:#000000;stroke-width:0.8;" x="57.6" xlink:href="#mb9dabe225d"
                                 y="66.595261"/>
                        </g>
                    </g>
                    <g id="text_14">
                        <!-- 0.014 -->
                        <g transform="translate(21.971875 70.394479)scale(0.1 -0.1)">
                            <use xlink:href="#DejaVuSans-30"/>
                            <use x="63.623047" xlink:href="#DejaVuSans-2e"/>
                            <use x="95.410156" xlink:href="#DejaVuSans-30"/>
                            <use x="159.033203" xlink:href="#DejaVuSans-31"/>
                            <use x="222.65625" xlink:href="#DejaVuSans-34"/>
                        </g>
                    </g>
                </g>
            </g>
            <g id="line2d_15">
                <path clip-path="url(#pb76823659b)" d="M 73.832727 295.488
L 91.656898 295.398614 
L 95.476364 295.169213 
L 99.295829 294.676465 
L 103.115294 293.854821 
L 110.754225 291.780221 
L 113.300535 290.851138 
L 115.846845 289.710159 
L 119.66631 287.704004 
L 122.21262 286.131725 
L 124.75893 284.186655 
L 127.305241 281.717602 
L 129.851551 278.753337 
L 133.671016 273.846672 
L 136.217326 270.370935 
L 138.763636 266.428141 
L 140.036791 264.158254 
L 142.583102 258.926747 
L 152.768342 235.963697 
L 161.680428 217.041646 
L 162.953583 213.703296 
L 164.226738 209.781717 
L 165.499893 205.17346 
L 166.773048 199.856379 
L 169.319358 187.450728 
L 173.138824 167.867712 
L 174.411979 162.192191 
L 175.685134 157.221361 
L 176.958289 152.918301 
L 180.777754 141.546474 
L 182.050909 137.14676 
L 183.324064 132.11701 
L 187.143529 115.752931 
L 188.416684 111.208249 
L 189.68984 107.531897 
L 190.962995 104.679676 
L 192.23615 102.475318 
L 193.509305 100.694197 
L 196.055615 97.525466 
L 197.32877 95.757361 
L 198.601925 93.711075 
L 201.148235 89.115052 
L 202.42139 87.104652 
L 203.694545 85.719099 
L 204.967701 85.130395 
L 206.240856 85.283672 
L 207.514011 85.936019 
L 210.060321 87.573461 
L 211.333476 88.20045 
L 213.879786 89.018736 
L 216.426096 89.728884 
L 217.699251 90.225503 
L 218.972406 90.921333 
L 220.245561 91.917393 
L 221.518717 93.333807 
L 222.791872 95.294032 
L 224.065027 97.895539 
L 225.338182 101.177697 
L 226.611337 105.102481 
L 229.157647 114.372672 
L 232.977112 128.853109 
L 234.250267 132.89087 
L 235.523422 136.121837 
L 236.796578 138.346981 
L 238.069733 139.467089 
L 239.342888 139.528927 
L 240.616043 138.733479 
L 241.889198 137.391196 
L 244.435508 134.406242 
L 245.708663 133.336073 
L 246.981818 132.860338 
L 248.254973 133.183249 
L 249.528128 134.47703 
L 250.801283 136.858901 
L 252.074439 140.376742 
L 253.347594 145.005291 
L 254.620749 150.63676 
L 257.167059 163.953962 
L 259.713369 177.580172 
L 260.986524 183.670188 
L 262.259679 189.104164 
L 263.532834 193.94471 
L 266.079144 202.355106 
L 268.625455 209.704906 
L 281.357005 243.949504 
L 283.903316 249.654329 
L 285.176471 252.083929 
L 287.722781 256.217735 
L 292.815401 263.799338 
L 297.908021 271.960487 
L 300.454332 275.524786 
L 303.000642 278.690006 
L 305.546952 281.492151 
L 308.093262 283.944882 
L 310.639572 286.131827 
L 313.185882 288.052305 
L 315.732193 289.61331 
L 318.278503 290.807609 
L 320.824813 291.722029 
L 324.644278 292.809194 
L 328.463743 293.638731 
L 331.010053 293.979119 
L 334.829519 294.213595 
L 338.648984 294.233912 
L 345.014759 294.191595 
L 350.10738 294.480846 
L 356.473155 294.883397 
L 362.83893 294.943277 
L 392.121497 295.299589 
L 398.487273 295.287375 
L 398.487273 295.287375 
" style="fill:none;stroke:#1f77b4;stroke-linecap:square;stroke-width:1.5;"/>
            </g>
            <g id="line2d_16">
                <path clip-path="url(#pb76823659b)" d="M 73.832727 294.420979
L 76.379037 293.685384 
L 78.925348 292.704443 
L 81.471658 291.512098 
L 85.291123 289.416451 
L 87.837433 287.816229 
L 90.383743 285.996772 
L 92.930053 283.906771 
L 95.476364 281.558066 
L 101.842139 275.480141 
L 104.388449 273.528598 
L 105.661604 272.75128 
L 106.934759 272.1242 
L 108.207914 271.653209 
L 109.48107 271.338223 
L 110.754225 271.173695 
L 112.02738 271.149261 
L 114.57369 271.460048 
L 117.12 272.12477 
L 122.21262 273.896549 
L 127.305241 275.569486 
L 133.671016 277.313512 
L 141.309947 279.171872 
L 147.675722 280.733688 
L 154.041497 282.377864 
L 156.587807 282.8655 
L 159.134118 283.191226 
L 162.953583 283.423513 
L 168.046203 283.478874 
L 173.138824 283.323344 
L 176.958289 282.984334 
L 180.777754 282.448623 
L 185.870374 281.493951 
L 190.962995 280.269229 
L 197.32877 278.625554 
L 201.148235 277.891588 
L 204.967701 277.418609 
L 210.060321 277.03241 
L 215.152941 276.825354 
L 220.245561 276.855574 
L 225.338182 276.905344 
L 227.884492 276.722847 
L 230.430802 276.286716 
L 232.977112 275.579072 
L 235.523422 274.651726 
L 240.616043 272.479797 
L 245.708663 270.104575 
L 248.254973 268.709088 
L 250.801283 267.039207 
L 253.347594 265.003156 
L 255.893904 262.544218 
L 258.440214 259.657373 
L 260.986524 256.400921 
L 266.079144 249.29048 
L 276.264385 234.861024 
L 277.53754 232.66453 
L 278.810695 230.193855 
L 280.08385 227.370709 
L 281.357005 224.115018 
L 282.63016 220.349004 
L 283.903316 216.001781 
L 285.176471 211.014164 
L 286.449626 205.343284 
L 287.722781 198.96656 
L 288.995936 191.88468 
L 291.542246 175.733777 
L 294.088556 157.395245 
L 301.727487 98.865873 
L 304.273797 82.103148 
L 305.546952 74.901918 
L 306.820107 68.654495 
L 308.093262 63.455083 
L 309.366417 59.360791 
L 310.639572 56.383373 
L 311.912727 54.485847 
L 313.185882 53.586095 
L 314.459037 53.568 
L 315.732193 54.29868 
L 317.005348 55.648605 
L 318.278503 57.510335 
L 319.551658 59.811791 
L 320.824813 62.521175 
L 322.097968 65.642736 
L 323.371123 69.204809 
L 324.644278 73.243297 
L 325.917433 77.78459 
L 327.190588 82.831617 
L 329.736898 94.293878 
L 333.556364 113.577116 
L 336.102674 126.435499 
L 338.648984 138.246175 
L 341.195294 148.415527 
L 342.468449 152.797633 
L 343.741604 156.710526 
L 345.014759 160.180348 
L 346.287914 163.252774 
L 348.834225 168.473229 
L 353.926845 177.709014 
L 355.2 180.309539 
L 356.473155 183.176045 
L 357.74631 186.349296 
L 360.29262 193.660533 
L 362.83893 202.123392 
L 366.658396 216.146541 
L 370.477861 230.254423 
L 373.024171 238.794979 
L 374.297326 242.600233 
L 375.570481 246.007191 
L 376.843636 248.949357 
L 378.116791 251.355388 
L 379.389947 253.143146 
L 380.663102 254.213566 
L 381.936257 254.447103 
L 383.209412 253.706543 
L 384.482567 251.850117 
L 385.755722 248.757706 
L 387.028877 244.369944 
L 388.302032 238.735477 
L 389.575187 232.056486 
L 393.394652 210.485693 
L 394.667807 205.075796 
L 395.940963 201.783004 
L 397.214118 201.156118 
L 398.487273 203.46885 
L 398.487273 203.46885 
" style="fill:none;stroke:#ff7f0e;stroke-linecap:square;stroke-width:1.5;"/>
            </g>
            <g id="patch_3">
                <path d="M 57.6 307.584
L 57.6 41.472 
" style="fill:none;stroke:#000000;stroke-linecap:square;stroke-linejoin:miter;stroke-width:0.8;"/>
            </g>
            <g id="patch_4">
                <path d="M 414.72 307.584
L 414.72 41.472 
" style="fill:none;stroke:#000000;stroke-linecap:square;stroke-linejoin:miter;stroke-width:0.8;"/>
            </g>
            <g id="patch_5">
                <path d="M 57.6 307.584
L 414.72 307.584 
" style="fill:none;stroke:#000000;stroke-linecap:square;stroke-linejoin:miter;stroke-width:0.8;"/>
            </g>
            <g id="patch_6">
                <path d="M 57.6 41.472
L 414.72 41.472 
" style="fill:none;stroke:#000000;stroke-linecap:square;stroke-linejoin:miter;stroke-width:0.8;"/>
            </g>
            <g id="legend_1">
                <g id="patch_7">
                    <path d="M 64.6 78.82825
L 155.964063 78.82825 
Q 157.964063 78.82825 157.964063 76.82825 
L 157.964063 48.472 
Q 157.964063 46.472 155.964063 46.472 
L 64.6 46.472 
Q 62.6 46.472 62.6 48.472 
L 62.6 76.82825 
Q 62.6 78.82825 64.6 78.82825 
z
" style="fill:#ffffff;opacity:0.8;stroke:#cccccc;stroke-linejoin:miter;"/>
                </g>
                <g id="line2d_17">
                    <path d="M 66.6 54.570437
L 86.6 54.570437 
" style="fill:none;stroke:#1f77b4;stroke-linecap:square;stroke-width:1.5;"/>
                </g>
                <g id="line2d_18"/>
                <g id="text_15">
                    <!-- plant -->
                    <defs>
                        <path d="M 18.109375 8.203125
L 18.109375 -20.796875 
L 9.078125 -20.796875 
L 9.078125 54.6875 
L 18.109375 54.6875 
L 18.109375 46.390625 
Q 20.953125 51.265625 25.265625 53.625 
Q 29.59375 56 35.59375 56 
Q 45.5625 56 51.78125 48.09375 
Q 58.015625 40.1875 58.015625 27.296875 
Q 58.015625 14.40625 51.78125 6.484375 
Q 45.5625 -1.421875 35.59375 -1.421875 
Q 29.59375 -1.421875 25.265625 0.953125 
Q 20.953125 3.328125 18.109375 8.203125 
z
M 48.6875 27.296875 
Q 48.6875 37.203125 44.609375 42.84375 
Q 40.53125 48.484375 33.40625 48.484375 
Q 26.265625 48.484375 22.1875 42.84375 
Q 18.109375 37.203125 18.109375 27.296875 
Q 18.109375 17.390625 22.1875 11.75 
Q 26.265625 6.109375 33.40625 6.109375 
Q 40.53125 6.109375 44.609375 11.75 
Q 48.6875 17.390625 48.6875 27.296875 
z
" id="DejaVuSans-70"/>
                        <path d="M 9.421875 75.984375
L 18.40625 75.984375 
L 18.40625 0 
L 9.421875 0 
z
" id="DejaVuSans-6c"/>
                        <path d="M 34.28125 27.484375
Q 23.390625 27.484375 19.1875 25 
Q 14.984375 22.515625 14.984375 16.5 
Q 14.984375 11.71875 18.140625 8.90625 
Q 21.296875 6.109375 26.703125 6.109375 
Q 34.1875 6.109375 38.703125 11.40625 
Q 43.21875 16.703125 43.21875 25.484375 
L 43.21875 27.484375 
z
M 52.203125 31.203125 
L 52.203125 0 
L 43.21875 0 
L 43.21875 8.296875 
Q 40.140625 3.328125 35.546875 0.953125 
Q 30.953125 -1.421875 24.3125 -1.421875 
Q 15.921875 -1.421875 10.953125 3.296875 
Q 6 8.015625 6 15.921875 
Q 6 25.140625 12.171875 29.828125 
Q 18.359375 34.515625 30.609375 34.515625 
L 43.21875 34.515625 
L 43.21875 35.40625 
Q 43.21875 41.609375 39.140625 45 
Q 35.0625 48.390625 27.6875 48.390625 
Q 23 48.390625 18.546875 47.265625 
Q 14.109375 46.140625 10.015625 43.890625 
L 10.015625 52.203125 
Q 14.9375 54.109375 19.578125 55.046875 
Q 24.21875 56 28.609375 56 
Q 40.484375 56 46.34375 49.84375 
Q 52.203125 43.703125 52.203125 31.203125 
z
" id="DejaVuSans-61"/>
                        <path d="M 54.890625 33.015625
L 54.890625 0 
L 45.90625 0 
L 45.90625 32.71875 
Q 45.90625 40.484375 42.875 44.328125 
Q 39.84375 48.1875 33.796875 48.1875 
Q 26.515625 48.1875 22.3125 43.546875 
Q 18.109375 38.921875 18.109375 30.90625 
L 18.109375 0 
L 9.078125 0 
L 9.078125 54.6875 
L 18.109375 54.6875 
L 18.109375 46.1875 
Q 21.34375 51.125 25.703125 53.5625 
Q 30.078125 56 35.796875 56 
Q 45.21875 56 50.046875 50.171875 
Q 54.890625 44.34375 54.890625 33.015625 
z
" id="DejaVuSans-6e"/>
                        <path d="M 18.3125 70.21875
L 18.3125 54.6875 
L 36.8125 54.6875 
L 36.8125 47.703125 
L 18.3125 47.703125 
L 18.3125 18.015625 
Q 18.3125 11.328125 20.140625 9.421875 
Q 21.96875 7.515625 27.59375 7.515625 
L 36.8125 7.515625 
L 36.8125 0 
L 27.59375 0 
Q 17.1875 0 13.234375 3.875 
Q 9.28125 7.765625 9.28125 18.015625 
L 9.28125 47.703125 
L 2.6875 47.703125 
L 2.6875 54.6875 
L 9.28125 54.6875 
L 9.28125 70.21875 
z
" id="DejaVuSans-74"/>
                    </defs>
                    <g transform="translate(94.6 58.070437)scale(0.1 -0.1)">
                        <use xlink:href="#DejaVuSans-70"/>
                        <use x="63.476562" xlink:href="#DejaVuSans-6c"/>
                        <use x="91.259766" xlink:href="#DejaVuSans-61"/>
                        <use x="152.539062" xlink:href="#DejaVuSans-6e"/>
                        <use x="215.917969" xlink:href="#DejaVuSans-74"/>
                    </g>
                </g>
                <g id="line2d_19">
                    <path d="M 66.6 69.248562
L 86.6 69.248562 
" style="fill:none;stroke:#ff7f0e;stroke-linecap:square;stroke-width:1.5;"/>
                </g>
                <g id="line2d_20"/>
                <g id="text_16">
                    <!-- background -->
                    <defs>
                        <path d="M 48.6875 27.296875
Q 48.6875 37.203125 44.609375 42.84375 
Q 40.53125 48.484375 33.40625 48.484375 
Q 26.265625 48.484375 22.1875 42.84375 
Q 18.109375 37.203125 18.109375 27.296875 
Q 18.109375 17.390625 22.1875 11.75 
Q 26.265625 6.109375 33.40625 6.109375 
Q 40.53125 6.109375 44.609375 11.75 
Q 48.6875 17.390625 48.6875 27.296875 
z
M 18.109375 46.390625 
Q 20.953125 51.265625 25.265625 53.625 
Q 29.59375 56 35.59375 56 
Q 45.5625 56 51.78125 48.09375 
Q 58.015625 40.1875 58.015625 27.296875 
Q 58.015625 14.40625 51.78125 6.484375 
Q 45.5625 -1.421875 35.59375 -1.421875 
Q 29.59375 -1.421875 25.265625 0.953125 
Q 20.953125 3.328125 18.109375 8.203125 
L 18.109375 0 
L 9.078125 0 
L 9.078125 75.984375 
L 18.109375 75.984375 
z
" id="DejaVuSans-62"/>
                        <path d="M 48.78125 52.59375
L 48.78125 44.1875 
Q 44.96875 46.296875 41.140625 47.34375 
Q 37.3125 48.390625 33.40625 48.390625 
Q 24.65625 48.390625 19.8125 42.84375 
Q 14.984375 37.3125 14.984375 27.296875 
Q 14.984375 17.28125 19.8125 11.734375 
Q 24.65625 6.203125 33.40625 6.203125 
Q 37.3125 6.203125 41.140625 7.25 
Q 44.96875 8.296875 48.78125 10.40625 
L 48.78125 2.09375 
Q 45.015625 0.34375 40.984375 -0.53125 
Q 36.96875 -1.421875 32.421875 -1.421875 
Q 20.0625 -1.421875 12.78125 6.34375 
Q 5.515625 14.109375 5.515625 27.296875 
Q 5.515625 40.671875 12.859375 48.328125 
Q 20.21875 56 33.015625 56 
Q 37.15625 56 41.109375 55.140625 
Q 45.0625 54.296875 48.78125 52.59375 
z
" id="DejaVuSans-63"/>
                        <path d="M 9.078125 75.984375
L 18.109375 75.984375 
L 18.109375 31.109375 
L 44.921875 54.6875 
L 56.390625 54.6875 
L 27.390625 29.109375 
L 57.625 0 
L 45.90625 0 
L 18.109375 26.703125 
L 18.109375 0 
L 9.078125 0 
z
" id="DejaVuSans-6b"/>
                        <path d="M 45.40625 27.984375
Q 45.40625 37.75 41.375 43.109375 
Q 37.359375 48.484375 30.078125 48.484375 
Q 22.859375 48.484375 18.828125 43.109375 
Q 14.796875 37.75 14.796875 27.984375 
Q 14.796875 18.265625 18.828125 12.890625 
Q 22.859375 7.515625 30.078125 7.515625 
Q 37.359375 7.515625 41.375 12.890625 
Q 45.40625 18.265625 45.40625 27.984375 
z
M 54.390625 6.78125 
Q 54.390625 -7.171875 48.1875 -13.984375 
Q 42 -20.796875 29.203125 -20.796875 
Q 24.46875 -20.796875 20.265625 -20.09375 
Q 16.0625 -19.390625 12.109375 -17.921875 
L 12.109375 -9.1875 
Q 16.0625 -11.328125 19.921875 -12.34375 
Q 23.78125 -13.375 27.78125 -13.375 
Q 36.625 -13.375 41.015625 -8.765625 
Q 45.40625 -4.15625 45.40625 5.171875 
L 45.40625 9.625 
Q 42.625 4.78125 38.28125 2.390625 
Q 33.9375 0 27.875 0 
Q 17.828125 0 11.671875 7.65625 
Q 5.515625 15.328125 5.515625 27.984375 
Q 5.515625 40.671875 11.671875 48.328125 
Q 17.828125 56 27.875 56 
Q 33.9375 56 38.28125 53.609375 
Q 42.625 51.21875 45.40625 46.390625 
L 45.40625 54.6875 
L 54.390625 54.6875 
z
" id="DejaVuSans-67"/>
                        <path d="M 41.109375 46.296875
Q 39.59375 47.171875 37.8125 47.578125 
Q 36.03125 48 33.890625 48 
Q 26.265625 48 22.1875 43.046875 
Q 18.109375 38.09375 18.109375 28.8125 
L 18.109375 0 
L 9.078125 0 
L 9.078125 54.6875 
L 18.109375 54.6875 
L 18.109375 46.1875 
Q 20.953125 51.171875 25.484375 53.578125 
Q 30.03125 56 36.53125 56 
Q 37.453125 56 38.578125 55.875 
Q 39.703125 55.765625 41.0625 55.515625 
z
" id="DejaVuSans-72"/>
                        <path d="M 30.609375 48.390625
Q 23.390625 48.390625 19.1875 42.75 
Q 14.984375 37.109375 14.984375 27.296875 
Q 14.984375 17.484375 19.15625 11.84375 
Q 23.34375 6.203125 30.609375 6.203125 
Q 37.796875 6.203125 41.984375 11.859375 
Q 46.1875 17.53125 46.1875 27.296875 
Q 46.1875 37.015625 41.984375 42.703125 
Q 37.796875 48.390625 30.609375 48.390625 
z
M 30.609375 56 
Q 42.328125 56 49.015625 48.375 
Q 55.71875 40.765625 55.71875 27.296875 
Q 55.71875 13.875 49.015625 6.21875 
Q 42.328125 -1.421875 30.609375 -1.421875 
Q 18.84375 -1.421875 12.171875 6.21875 
Q 5.515625 13.875 5.515625 27.296875 
Q 5.515625 40.765625 12.171875 48.375 
Q 18.84375 56 30.609375 56 
z
" id="DejaVuSans-6f"/>
                        <path d="M 8.5 21.578125
L 8.5 54.6875 
L 17.484375 54.6875 
L 17.484375 21.921875 
Q 17.484375 14.15625 20.5 10.265625 
Q 23.53125 6.390625 29.59375 6.390625 
Q 36.859375 6.390625 41.078125 11.03125 
Q 45.3125 15.671875 45.3125 23.6875 
L 45.3125 54.6875 
L 54.296875 54.6875 
L 54.296875 0 
L 45.3125 0 
L 45.3125 8.40625 
Q 42.046875 3.421875 37.71875 1 
Q 33.40625 -1.421875 27.6875 -1.421875 
Q 18.265625 -1.421875 13.375 4.4375 
Q 8.5 10.296875 8.5 21.578125 
z
M 31.109375 56 
z
" id="DejaVuSans-75"/>
                        <path d="M 45.40625 46.390625
L 45.40625 75.984375 
L 54.390625 75.984375 
L 54.390625 0 
L 45.40625 0 
L 45.40625 8.203125 
Q 42.578125 3.328125 38.25 0.953125 
Q 33.9375 -1.421875 27.875 -1.421875 
Q 17.96875 -1.421875 11.734375 6.484375 
Q 5.515625 14.40625 5.515625 27.296875 
Q 5.515625 40.1875 11.734375 48.09375 
Q 17.96875 56 27.875 56 
Q 33.9375 56 38.25 53.625 
Q 42.578125 51.265625 45.40625 46.390625 
z
M 14.796875 27.296875 
Q 14.796875 17.390625 18.875 11.75 
Q 22.953125 6.109375 30.078125 6.109375 
Q 37.203125 6.109375 41.296875 11.75 
Q 45.40625 17.390625 45.40625 27.296875 
Q 45.40625 37.203125 41.296875 42.84375 
Q 37.203125 48.484375 30.078125 48.484375 
Q 22.953125 48.484375 18.875 42.84375 
Q 14.796875 37.203125 14.796875 27.296875 
z
" id="DejaVuSans-64"/>
                    </defs>
                    <g transform="translate(94.6 72.748562)scale(0.1 -0.1)">
                        <use xlink:href="#DejaVuSans-62"/>
                        <use x="63.476562" xlink:href="#DejaVuSans-61"/>
                        <use x="124.755859" xlink:href="#DejaVuSans-63"/>
                        <use x="179.736328" xlink:href="#DejaVuSans-6b"/>
                        <use x="237.646484" xlink:href="#DejaVuSans-67"/>
                        <use x="301.123047" xlink:href="#DejaVuSans-72"/>
                        <use x="342.205078" xlink:href="#DejaVuSans-6f"/>
                        <use x="403.386719" xlink:href="#DejaVuSans-75"/>
                        <use x="466.765625" xlink:href="#DejaVuSans-6e"/>
                        <use x="530.144531" xlink:href="#DejaVuSans-64"/>
                    </g>
                </g>
            </g>
        </g>
    </g>
    <defs>
        <clipPath id="pb76823659b">
            <rect height="266.112" width="357.12" x="57.6" y="41.472"/>
        </clipPath>
    </defs>
</svg>
