<?xml version="1.0" encoding="utf-8" standalone="no"?>
<!DOCTYPE svg PUBLIC "-//W3C//DTD SVG 1.1//EN"
        "http://www.w3.org/Graphics/SVG/1.1/DTD/svg11.dtd">
<!-- Created with matplotlib (http://matplotlib.org/) -->
<svg xmlns:xlink="http://www.w3.org/1999/xlink" height="345pt" version="1.1" viewBox="0 0 460 345" width="460pt"
     xmlns="http://www.w3.org/2000/svg">
    <defs>
        <style type="text/css">
            *{stroke-linecap:butt;stroke-linejoin:round;}
        </style>
    </defs>
    <g id="figure_1">
        <g id="patch_1">
            <path d="M 0 345.6
L 460.8 345.6 
L 460.8 0 
L 0 0 
z
" style="fill:#ffffff;"/>
        </g>
        <g id="axes_1">
            <g id="patch_2">
                <path d="M 57.6 307.584
L 414.72 307.584 
L 414.72 41.472 
L 57.6 41.472 
z
" style="fill:#ffffff;"/>
            </g>
            <g id="matplotlib.axis_1">
                <g id="xtick_1">
                    <g id="line2d_1">
                        <defs>
                            <path d="M 0 0
L 0 3.5 
" id="me49112a6f6" style="stroke:#000000;stroke-width:0.8;"/>
                        </defs>
                        <g>
                            <use style="stroke:#000000;stroke-width:0.8;" x="73.832727" xlink:href="#me49112a6f6"
                                 y="307.584"/>
                        </g>
                    </g>
                    <g id="text_1">
                        <!-- 0 -->
                        <defs>
                            <path d="M 31.78125 66.40625
Q 24.171875 66.40625 20.328125 58.90625 
Q 16.5 51.421875 16.5 36.375 
Q 16.5 21.390625 20.328125 13.890625 
Q 24.171875 6.390625 31.78125 6.390625 
Q 39.453125 6.390625 43.28125 13.890625 
Q 47.125 21.390625 47.125 36.375 
Q 47.125 51.421875 43.28125 58.90625 
Q 39.453125 66.40625 31.78125 66.40625 
z
M 31.78125 74.21875 
Q 44.046875 74.21875 50.515625 64.515625 
Q 56.984375 54.828125 56.984375 36.375 
Q 56.984375 17.96875 50.515625 8.265625 
Q 44.046875 -1.421875 31.78125 -1.421875 
Q 19.53125 -1.421875 13.0625 8.265625 
Q 6.59375 17.96875 6.59375 36.375 
Q 6.59375 54.828125 13.0625 64.515625 
Q 19.53125 74.21875 31.78125 74.21875 
z
" id="DejaVuSans-30"/>
                        </defs>
                        <g transform="translate(70.651477 322.182437)scale(0.1 -0.1)">
                            <use xlink:href="#DejaVuSans-30"/>
                        </g>
                    </g>
                </g>
                <g id="xtick_2">
                    <g id="line2d_2">
                        <g>
                            <use style="stroke:#000000;stroke-width:0.8;" x="137.490481" xlink:href="#me49112a6f6"
                                 y="307.584"/>
                        </g>
                    </g>
                    <g id="text_2">
                        <!-- 50 -->
                        <defs>
                            <path d="M 10.796875 72.90625
L 49.515625 72.90625 
L 49.515625 64.59375 
L 19.828125 64.59375 
L 19.828125 46.734375 
Q 21.96875 47.46875 24.109375 47.828125 
Q 26.265625 48.1875 28.421875 48.1875 
Q 40.625 48.1875 47.75 41.5 
Q 54.890625 34.8125 54.890625 23.390625 
Q 54.890625 11.625 47.5625 5.09375 
Q 40.234375 -1.421875 26.90625 -1.421875 
Q 22.3125 -1.421875 17.546875 -0.640625 
Q 12.796875 0.140625 7.71875 1.703125 
L 7.71875 11.625 
Q 12.109375 9.234375 16.796875 8.0625 
Q 21.484375 6.890625 26.703125 6.890625 
Q 35.15625 6.890625 40.078125 11.328125 
Q 45.015625 15.765625 45.015625 23.390625 
Q 45.015625 31 40.078125 35.4375 
Q 35.15625 39.890625 26.703125 39.890625 
Q 22.75 39.890625 18.8125 39.015625 
Q 14.890625 38.140625 10.796875 36.28125 
z
" id="DejaVuSans-35"/>
                        </defs>
                        <g transform="translate(131.127981 322.182437)scale(0.1 -0.1)">
                            <use xlink:href="#DejaVuSans-35"/>
                            <use x="63.623047" xlink:href="#DejaVuSans-30"/>
                        </g>
                    </g>
                </g>
                <g id="xtick_3">
                    <g id="line2d_3">
                        <g>
                            <use style="stroke:#000000;stroke-width:0.8;" x="201.148235" xlink:href="#me49112a6f6"
                                 y="307.584"/>
                        </g>
                    </g>
                    <g id="text_3">
                        <!-- 100 -->
                        <defs>
                            <path d="M 12.40625 8.296875
L 28.515625 8.296875 
L 28.515625 63.921875 
L 10.984375 60.40625 
L 10.984375 69.390625 
L 28.421875 72.90625 
L 38.28125 72.90625 
L 38.28125 8.296875 
L 54.390625 8.296875 
L 54.390625 0 
L 12.40625 0 
z
" id="DejaVuSans-31"/>
                        </defs>
                        <g transform="translate(191.604485 322.182437)scale(0.1 -0.1)">
                            <use xlink:href="#DejaVuSans-31"/>
                            <use x="63.623047" xlink:href="#DejaVuSans-30"/>
                            <use x="127.246094" xlink:href="#DejaVuSans-30"/>
                        </g>
                    </g>
                </g>
                <g id="xtick_4">
                    <g id="line2d_4">
                        <g>
                            <use style="stroke:#000000;stroke-width:0.8;" x="264.805989" xlink:href="#me49112a6f6"
                                 y="307.584"/>
                        </g>
                    </g>
                    <g id="text_4">
                        <!-- 150 -->
                        <g transform="translate(255.262239 322.182437)scale(0.1 -0.1)">
                            <use xlink:href="#DejaVuSans-31"/>
                            <use x="63.623047" xlink:href="#DejaVuSans-35"/>
                            <use x="127.246094" xlink:href="#DejaVuSans-30"/>
                        </g>
                    </g>
                </g>
                <g id="xtick_5">
                    <g id="line2d_5">
                        <g>
                            <use style="stroke:#000000;stroke-width:0.8;" x="328.463743" xlink:href="#me49112a6f6"
                                 y="307.584"/>
                        </g>
                    </g>
                    <g id="text_5">
                        <!-- 200 -->
                        <defs>
                            <path d="M 19.1875 8.296875
L 53.609375 8.296875 
L 53.609375 0 
L 7.328125 0 
L 7.328125 8.296875 
Q 12.9375 14.109375 22.625 23.890625 
Q 32.328125 33.6875 34.8125 36.53125 
Q 39.546875 41.84375 41.421875 45.53125 
Q 43.3125 49.21875 43.3125 52.78125 
Q 43.3125 58.59375 39.234375 62.25 
Q 35.15625 65.921875 28.609375 65.921875 
Q 23.96875 65.921875 18.8125 64.3125 
Q 13.671875 62.703125 7.8125 59.421875 
L 7.8125 69.390625 
Q 13.765625 71.78125 18.9375 73 
Q 24.125 74.21875 28.421875 74.21875 
Q 39.75 74.21875 46.484375 68.546875 
Q 53.21875 62.890625 53.21875 53.421875 
Q 53.21875 48.921875 51.53125 44.890625 
Q 49.859375 40.875 45.40625 35.40625 
Q 44.1875 33.984375 37.640625 27.21875 
Q 31.109375 20.453125 19.1875 8.296875 
z
" id="DejaVuSans-32"/>
                        </defs>
                        <g transform="translate(318.919993 322.182437)scale(0.1 -0.1)">
                            <use xlink:href="#DejaVuSans-32"/>
                            <use x="63.623047" xlink:href="#DejaVuSans-30"/>
                            <use x="127.246094" xlink:href="#DejaVuSans-30"/>
                        </g>
                    </g>
                </g>
                <g id="xtick_6">
                    <g id="line2d_6">
                        <g>
                            <use style="stroke:#000000;stroke-width:0.8;" x="392.121497" xlink:href="#me49112a6f6"
                                 y="307.584"/>
                        </g>
                    </g>
                    <g id="text_6">
                        <!-- 250 -->
                        <g transform="translate(382.577747 322.182437)scale(0.1 -0.1)">
                            <use xlink:href="#DejaVuSans-32"/>
                            <use x="63.623047" xlink:href="#DejaVuSans-35"/>
                            <use x="127.246094" xlink:href="#DejaVuSans-30"/>
                        </g>
                    </g>
                </g>
            </g>
            <g id="matplotlib.axis_2">
                <g id="ytick_1">
                    <g id="line2d_7">
                        <defs>
                            <path d="M 0 0
L -3.5 0 
" id="mc67420ea8d" style="stroke:#000000;stroke-width:0.8;"/>
                        </defs>
                        <g>
                            <use style="stroke:#000000;stroke-width:0.8;" x="57.6" xlink:href="#mc67420ea8d"
                                 y="295.488"/>
                        </g>
                    </g>
                    <g id="text_7">
                        <!-- 0.000 -->
                        <defs>
                            <path d="M 10.6875 12.40625
L 21 12.40625 
L 21 0 
L 10.6875 0 
z
" id="DejaVuSans-2e"/>
                        </defs>
                        <g transform="translate(21.971875 299.287219)scale(0.1 -0.1)">
                            <use xlink:href="#DejaVuSans-30"/>
                            <use x="63.623047" xlink:href="#DejaVuSans-2e"/>
                            <use x="95.410156" xlink:href="#DejaVuSans-30"/>
                            <use x="159.033203" xlink:href="#DejaVuSans-30"/>
                            <use x="222.65625" xlink:href="#DejaVuSans-30"/>
                        </g>
                    </g>
                </g>
                <g id="ytick_2">
                    <g id="line2d_8">
                        <g>
                            <use style="stroke:#000000;stroke-width:0.8;" x="57.6" xlink:href="#mc67420ea8d"
                                 y="265.165882"/>
                        </g>
                    </g>
                    <g id="text_8">
                        <!-- 0.002 -->
                        <g transform="translate(21.971875 268.965101)scale(0.1 -0.1)">
                            <use xlink:href="#DejaVuSans-30"/>
                            <use x="63.623047" xlink:href="#DejaVuSans-2e"/>
                            <use x="95.410156" xlink:href="#DejaVuSans-30"/>
                            <use x="159.033203" xlink:href="#DejaVuSans-30"/>
                            <use x="222.65625" xlink:href="#DejaVuSans-32"/>
                        </g>
                    </g>
                </g>
                <g id="ytick_3">
                    <g id="line2d_9">
                        <g>
                            <use style="stroke:#000000;stroke-width:0.8;" x="57.6" xlink:href="#mc67420ea8d"
                                 y="234.843765"/>
                        </g>
                    </g>
                    <g id="text_9">
                        <!-- 0.004 -->
                        <defs>
                            <path d="M 37.796875 64.3125
L 12.890625 25.390625 
L 37.796875 25.390625 
z
M 35.203125 72.90625 
L 47.609375 72.90625 
L 47.609375 25.390625 
L 58.015625 25.390625 
L 58.015625 17.1875 
L 47.609375 17.1875 
L 47.609375 0 
L 37.796875 0 
L 37.796875 17.1875 
L 4.890625 17.1875 
L 4.890625 26.703125 
z
" id="DejaVuSans-34"/>
                        </defs>
                        <g transform="translate(21.971875 238.642984)scale(0.1 -0.1)">
                            <use xlink:href="#DejaVuSans-30"/>
                            <use x="63.623047" xlink:href="#DejaVuSans-2e"/>
                            <use x="95.410156" xlink:href="#DejaVuSans-30"/>
                            <use x="159.033203" xlink:href="#DejaVuSans-30"/>
                            <use x="222.65625" xlink:href="#DejaVuSans-34"/>
                        </g>
                    </g>
                </g>
                <g id="ytick_4">
                    <g id="line2d_10">
                        <g>
                            <use style="stroke:#000000;stroke-width:0.8;" x="57.6" xlink:href="#mc67420ea8d"
                                 y="204.521647"/>
                        </g>
                    </g>
                    <g id="text_10">
                        <!-- 0.006 -->
                        <defs>
                            <path d="M 33.015625 40.375
Q 26.375 40.375 22.484375 35.828125 
Q 18.609375 31.296875 18.609375 23.390625 
Q 18.609375 15.53125 22.484375 10.953125 
Q 26.375 6.390625 33.015625 6.390625 
Q 39.65625 6.390625 43.53125 10.953125 
Q 47.40625 15.53125 47.40625 23.390625 
Q 47.40625 31.296875 43.53125 35.828125 
Q 39.65625 40.375 33.015625 40.375 
z
M 52.59375 71.296875 
L 52.59375 62.3125 
Q 48.875 64.0625 45.09375 64.984375 
Q 41.3125 65.921875 37.59375 65.921875 
Q 27.828125 65.921875 22.671875 59.328125 
Q 17.53125 52.734375 16.796875 39.40625 
Q 19.671875 43.65625 24.015625 45.921875 
Q 28.375 48.1875 33.59375 48.1875 
Q 44.578125 48.1875 50.953125 41.515625 
Q 57.328125 34.859375 57.328125 23.390625 
Q 57.328125 12.15625 50.6875 5.359375 
Q 44.046875 -1.421875 33.015625 -1.421875 
Q 20.359375 -1.421875 13.671875 8.265625 
Q 6.984375 17.96875 6.984375 36.375 
Q 6.984375 53.65625 15.1875 63.9375 
Q 23.390625 74.21875 37.203125 74.21875 
Q 40.921875 74.21875 44.703125 73.484375 
Q 48.484375 72.75 52.59375 71.296875 
z
" id="DejaVuSans-36"/>
                        </defs>
                        <g transform="translate(21.971875 208.320866)scale(0.1 -0.1)">
                            <use xlink:href="#DejaVuSans-30"/>
                            <use x="63.623047" xlink:href="#DejaVuSans-2e"/>
                            <use x="95.410156" xlink:href="#DejaVuSans-30"/>
                            <use x="159.033203" xlink:href="#DejaVuSans-30"/>
                            <use x="222.65625" xlink:href="#DejaVuSans-36"/>
                        </g>
                    </g>
                </g>
                <g id="ytick_5">
                    <g id="line2d_11">
                        <g>
                            <use style="stroke:#000000;stroke-width:0.8;" x="57.6" xlink:href="#mc67420ea8d"
                                 y="174.19953"/>
                        </g>
                    </g>
                    <g id="text_11">
                        <!-- 0.008 -->
                        <defs>
                            <path d="M 31.78125 34.625
Q 24.75 34.625 20.71875 30.859375 
Q 16.703125 27.09375 16.703125 20.515625 
Q 16.703125 13.921875 20.71875 10.15625 
Q 24.75 6.390625 31.78125 6.390625 
Q 38.8125 6.390625 42.859375 10.171875 
Q 46.921875 13.96875 46.921875 20.515625 
Q 46.921875 27.09375 42.890625 30.859375 
Q 38.875 34.625 31.78125 34.625 
z
M 21.921875 38.8125 
Q 15.578125 40.375 12.03125 44.71875 
Q 8.5 49.078125 8.5 55.328125 
Q 8.5 64.0625 14.71875 69.140625 
Q 20.953125 74.21875 31.78125 74.21875 
Q 42.671875 74.21875 48.875 69.140625 
Q 55.078125 64.0625 55.078125 55.328125 
Q 55.078125 49.078125 51.53125 44.71875 
Q 48 40.375 41.703125 38.8125 
Q 48.828125 37.15625 52.796875 32.3125 
Q 56.78125 27.484375 56.78125 20.515625 
Q 56.78125 9.90625 50.3125 4.234375 
Q 43.84375 -1.421875 31.78125 -1.421875 
Q 19.734375 -1.421875 13.25 4.234375 
Q 6.78125 9.90625 6.78125 20.515625 
Q 6.78125 27.484375 10.78125 32.3125 
Q 14.796875 37.15625 21.921875 38.8125 
z
M 18.3125 54.390625 
Q 18.3125 48.734375 21.84375 45.5625 
Q 25.390625 42.390625 31.78125 42.390625 
Q 38.140625 42.390625 41.71875 45.5625 
Q 45.3125 48.734375 45.3125 54.390625 
Q 45.3125 60.0625 41.71875 63.234375 
Q 38.140625 66.40625 31.78125 66.40625 
Q 25.390625 66.40625 21.84375 63.234375 
Q 18.3125 60.0625 18.3125 54.390625 
z
" id="DejaVuSans-38"/>
                        </defs>
                        <g transform="translate(21.971875 177.998749)scale(0.1 -0.1)">
                            <use xlink:href="#DejaVuSans-30"/>
                            <use x="63.623047" xlink:href="#DejaVuSans-2e"/>
                            <use x="95.410156" xlink:href="#DejaVuSans-30"/>
                            <use x="159.033203" xlink:href="#DejaVuSans-30"/>
                            <use x="222.65625" xlink:href="#DejaVuSans-38"/>
                        </g>
                    </g>
                </g>
                <g id="ytick_6">
                    <g id="line2d_12">
                        <g>
                            <use style="stroke:#000000;stroke-width:0.8;" x="57.6" xlink:href="#mc67420ea8d"
                                 y="143.877412"/>
                        </g>
                    </g>
                    <g id="text_12">
                        <!-- 0.010 -->
                        <g transform="translate(21.971875 147.676631)scale(0.1 -0.1)">
                            <use xlink:href="#DejaVuSans-30"/>
                            <use x="63.623047" xlink:href="#DejaVuSans-2e"/>
                            <use x="95.410156" xlink:href="#DejaVuSans-30"/>
                            <use x="159.033203" xlink:href="#DejaVuSans-31"/>
                            <use x="222.65625" xlink:href="#DejaVuSans-30"/>
                        </g>
                    </g>
                </g>
                <g id="ytick_7">
                    <g id="line2d_13">
                        <g>
                            <use style="stroke:#000000;stroke-width:0.8;" x="57.6" xlink:href="#mc67420ea8d"
                                 y="113.555295"/>
                        </g>
                    </g>
                    <g id="text_13">
                        <!-- 0.012 -->
                        <g transform="translate(21.971875 117.354514)scale(0.1 -0.1)">
                            <use xlink:href="#DejaVuSans-30"/>
                            <use x="63.623047" xlink:href="#DejaVuSans-2e"/>
                            <use x="95.410156" xlink:href="#DejaVuSans-30"/>
                            <use x="159.033203" xlink:href="#DejaVuSans-31"/>
                            <use x="222.65625" xlink:href="#DejaVuSans-32"/>
                        </g>
                    </g>
                </g>
                <g id="ytick_8">
                    <g id="line2d_14">
                        <g>
                            <use style="stroke:#000000;stroke-width:0.8;" x="57.6" xlink:href="#mc67420ea8d"
                                 y="83.233177"/>
                        </g>
                    </g>
                    <g id="text_14">
                        <!-- 0.014 -->
                        <g transform="translate(21.971875 87.032396)scale(0.1 -0.1)">
                            <use xlink:href="#DejaVuSans-30"/>
                            <use x="63.623047" xlink:href="#DejaVuSans-2e"/>
                            <use x="95.410156" xlink:href="#DejaVuSans-30"/>
                            <use x="159.033203" xlink:href="#DejaVuSans-31"/>
                            <use x="222.65625" xlink:href="#DejaVuSans-34"/>
                        </g>
                    </g>
                </g>
                <g id="ytick_9">
                    <g id="line2d_15">
                        <g>
                            <use style="stroke:#000000;stroke-width:0.8;" x="57.6" xlink:href="#mc67420ea8d"
                                 y="52.91106"/>
                        </g>
                    </g>
                    <g id="text_15">
                        <!-- 0.016 -->
                        <g transform="translate(21.971875 56.710278)scale(0.1 -0.1)">
                            <use xlink:href="#DejaVuSans-30"/>
                            <use x="63.623047" xlink:href="#DejaVuSans-2e"/>
                            <use x="95.410156" xlink:href="#DejaVuSans-30"/>
                            <use x="159.033203" xlink:href="#DejaVuSans-31"/>
                            <use x="222.65625" xlink:href="#DejaVuSans-36"/>
                        </g>
                    </g>
                </g>
            </g>
            <g id="line2d_16">
                <path clip-path="url(#p76cb9dd431)" d="M 73.832727 216.077531
L 75.105882 214.45183 
L 76.379037 214.458074 
L 77.652193 215.995554 
L 78.925348 218.859404 
L 80.198503 222.768429 
L 82.744813 232.426106 
L 85.291123 242.509931 
L 86.564278 247.13382 
L 87.837433 251.302579 
L 89.110588 254.96517 
L 90.383743 258.123066 
L 91.656898 260.815351 
L 92.930053 263.103193 
L 94.203209 265.055873 
L 95.476364 266.739788 
L 96.749519 268.211043 
L 99.295829 270.668819 
L 101.842139 272.599333 
L 103.115294 273.374918 
L 104.388449 274.019098 
L 105.661604 274.528159 
L 106.934759 274.900821 
L 108.207914 275.138785 
L 109.48107 275.246066 
L 110.754225 275.227425 
L 112.02738 275.08635 
L 113.300535 274.823053 
L 114.57369 274.432906 
L 115.846845 273.905534 
L 117.12 273.224557 
L 118.393155 272.367759 
L 119.66631 271.30728 
L 120.939465 270.009365 
L 122.21262 268.433243 
L 123.485775 266.528853 
L 124.75893 264.233417 
L 126.032086 261.467107 
L 127.305241 258.128489 
L 128.578396 254.090748 
L 129.851551 249.200119 
L 131.124706 243.27821 
L 132.397861 236.130026 
L 133.671016 227.559209 
L 134.944171 217.391347 
L 136.217326 205.504826 
L 137.490481 191.866986 
L 138.763636 176.571261 
L 141.309947 142.189875 
L 143.856257 106.482271 
L 145.129412 90.079888 
L 146.402567 75.829386 
L 147.675722 64.570183 
L 148.948877 56.994576 
L 150.222032 53.568 
L 151.495187 54.473105 
L 152.768342 59.587173 
L 154.041497 68.496839 
L 155.314652 80.547638 
L 156.587807 94.920076 
L 161.680428 158.41907 
L 162.953583 172.33224 
L 164.226738 184.649483 
L 165.499893 195.269475 
L 166.773048 204.227127 
L 168.046203 211.65423 
L 169.319358 217.739509 
L 170.592513 222.69333 
L 171.865668 226.720242 
L 173.138824 230.000517 
L 174.411979 232.680215 
L 175.685134 234.868236 
L 176.958289 236.63833 
L 178.231444 238.033969 
L 179.504599 239.074315 
L 180.777754 239.759951 
L 182.050909 240.0775 
L 183.324064 240.002761 
L 184.597219 239.502304 
L 185.870374 238.533781 
L 187.143529 237.045409 
L 188.416684 234.975251 
L 189.68984 232.251 
L 190.962995 228.791026 
L 192.23615 224.507381 
L 193.509305 219.311317 
L 194.78246 213.121593 
L 196.055615 205.875422 
L 197.32877 197.541404 
L 198.601925 188.133191 
L 201.148235 166.446342 
L 207.514011 106.431418 
L 208.787166 96.092747 
L 210.060321 87.066764 
L 211.333476 79.56065 
L 212.606631 73.688735 
L 213.879786 69.473155 
L 215.152941 66.858573 
L 216.426096 65.738462 
L 217.699251 65.98779 
L 218.972406 67.495329 
L 220.245561 70.188586 
L 221.518717 74.045759 
L 222.791872 79.091929 
L 224.065027 85.380243 
L 225.338182 92.962265 
L 226.611337 101.854222 
L 227.884492 112.006801 
L 230.430802 135.465082 
L 235.523422 186.538822 
L 238.069733 208.731592 
L 239.342888 218.179479 
L 240.616043 226.450689 
L 241.889198 233.593587 
L 243.162353 239.720391 
L 244.435508 244.98334 
L 245.708663 249.550311 
L 246.981818 253.583341 
L 249.528128 260.575692 
L 252.074439 266.683256 
L 254.620749 272.12753 
L 257.167059 276.820939 
L 258.440214 278.833264 
L 259.713369 280.600711 
L 260.986524 282.115582 
L 262.259679 283.377904 
L 263.532834 284.394731 
L 264.805989 285.178902 
L 266.079144 285.747617 
L 267.352299 286.121107 
L 268.625455 286.321521 
L 269.89861 286.37207 
L 272.44492 286.11794 
L 274.99123 285.543402 
L 294.088556 280.339933 
L 295.361711 280.225391 
L 296.634866 280.257616 
L 297.908021 280.467721 
L 299.181176 280.877304 
L 300.454332 281.494732 
L 301.727487 282.313021 
L 303.000642 283.309693 
L 305.546952 285.683864 
L 309.366417 289.457703 
L 311.912727 291.595171 
L 313.185882 292.468651 
L 314.459037 293.201432 
L 315.732193 293.797655 
L 318.278503 294.629428 
L 320.824813 295.092868 
L 323.371123 295.3234 
L 328.463743 295.466881 
L 346.287914 295.487999 
L 398.487273 295.488 
L 398.487273 295.488 
" style="fill:none;stroke:#1f77b4;stroke-linecap:square;stroke-width:1.5;"/>
            </g>
            <g id="line2d_17">
                <path clip-path="url(#p76cb9dd431)" d="M 73.832727 207.981265
L 75.105882 203.365675 
L 76.379037 199.283681 
L 77.652193 195.797236 
L 78.925348 192.952572 
L 80.198503 190.77937 
L 81.471658 189.290725 
L 82.744813 188.48386 
L 84.017968 188.341453 
L 85.291123 188.833451 
L 86.564278 189.919195 
L 87.837433 191.549707 
L 89.110588 193.669979 
L 90.383743 196.221151 
L 91.656898 199.142471 
L 94.203209 205.852974 
L 96.749519 213.334665 
L 104.388449 236.547481 
L 106.934759 243.596426 
L 109.48107 250.00547 
L 112.02738 255.697043 
L 114.57369 260.65036 
L 117.12 264.890314 
L 119.66631 268.474363 
L 122.21262 271.479318 
L 124.75893 273.989983 
L 127.305241 276.090697 
L 129.851551 277.859602 
L 132.397861 279.36461 
L 134.944171 280.660017 
L 138.763636 282.287385 
L 142.583102 283.571929 
L 145.129412 284.222912 
L 147.675722 284.683997 
L 150.222032 284.932633 
L 152.768342 284.955168 
L 155.314652 284.752732 
L 157.860963 284.342384 
L 160.407273 283.752416 
L 164.226738 282.591449 
L 168.046203 281.115243 
L 170.592513 279.890851 
L 173.138824 278.359123 
L 174.411979 277.431422 
L 175.685134 276.365431 
L 176.958289 275.135686 
L 178.231444 273.715362 
L 179.504599 272.077064 
L 180.777754 270.193707 
L 182.050909 268.039475 
L 183.324064 265.590819 
L 184.597219 262.827482 
L 185.870374 259.733503 
L 187.143529 256.298185 
L 189.68984 248.392379 
L 192.23615 239.161183 
L 194.78246 228.784046 
L 198.601925 211.788148 
L 203.694545 188.967119 
L 206.240856 178.732727 
L 207.514011 174.142348 
L 208.787166 169.976787 
L 210.060321 166.279854 
L 211.333476 163.084499 
L 212.606631 160.411876 
L 213.879786 158.270916 
L 215.152941 156.658451 
L 216.426096 155.559882 
L 217.699251 154.950351 
L 218.972406 154.796327 
L 220.245561 155.057511 
L 221.518717 155.688924 
L 222.791872 156.643025 
L 224.065027 157.871743 
L 225.338182 159.328282 
L 227.884492 162.752537 
L 230.430802 166.613559 
L 241.889198 184.648101 
L 244.435508 188.183202 
L 246.981818 191.342929 
L 249.528128 193.997276 
L 250.801283 195.085283 
L 252.074439 195.983116 
L 253.347594 196.665438 
L 254.620749 197.105702 
L 255.893904 197.276983 
L 257.167059 197.153103 
L 258.440214 196.709991 
L 259.713369 195.927243 
L 260.986524 194.789776 
L 262.259679 193.289472 
L 263.532834 191.426683 
L 264.805989 189.211491 
L 266.079144 186.664601 
L 268.625455 180.713993 
L 271.171765 173.958921 
L 274.99123 163.521364 
L 277.53754 157.318991 
L 278.810695 154.704996 
L 280.08385 152.528642 
L 281.357005 150.869131 
L 282.63016 149.799025 
L 283.903316 149.382367 
L 285.176471 149.672823 
L 286.449626 150.711885 
L 287.722781 152.527193 
L 288.995936 155.131043 
L 290.269091 158.519199 
L 291.542246 162.670109 
L 292.815401 167.544658 
L 294.088556 173.086535 
L 296.634866 185.868114 
L 299.181176 200.278111 
L 305.546952 237.649811 
L 308.093262 250.982544 
L 310.639572 262.515239 
L 311.912727 267.518049 
L 313.185882 271.995726 
L 314.459037 275.953625 
L 315.732193 279.408879 
L 317.005348 282.388235 
L 318.278503 284.925764 
L 319.551658 287.06058 
L 320.824813 288.834697 
L 322.097968 290.291108 
L 323.371123 291.472168 
L 324.644278 292.418296 
L 325.917433 293.167017 
L 327.190588 293.752321 
L 329.736898 294.549128 
L 332.283209 295.002404 
L 336.102674 295.322109 
L 341.195294 295.454274 
L 356.473155 295.487908 
L 398.487273 295.488 
L 398.487273 295.488 
" style="fill:none;stroke:#ff7f0e;stroke-linecap:square;stroke-width:1.5;"/>
            </g>
            <g id="patch_3">
                <path d="M 57.6 307.584
L 57.6 41.472 
" style="fill:none;stroke:#000000;stroke-linecap:square;stroke-linejoin:miter;stroke-width:0.8;"/>
            </g>
            <g id="patch_4">
                <path d="M 414.72 307.584
L 414.72 41.472 
" style="fill:none;stroke:#000000;stroke-linecap:square;stroke-linejoin:miter;stroke-width:0.8;"/>
            </g>
            <g id="patch_5">
                <path d="M 57.6 307.584
L 414.72 307.584 
" style="fill:none;stroke:#000000;stroke-linecap:square;stroke-linejoin:miter;stroke-width:0.8;"/>
            </g>
            <g id="patch_6">
                <path d="M 57.6 41.472
L 414.72 41.472 
" style="fill:none;stroke:#000000;stroke-linecap:square;stroke-linejoin:miter;stroke-width:0.8;"/>
            </g>
            <g id="legend_1">
                <g id="patch_7">
                    <path d="M 316.355938 78.82825
L 407.72 78.82825 
Q 409.72 78.82825 409.72 76.82825 
L 409.72 48.472 
Q 409.72 46.472 407.72 46.472 
L 316.355938 46.472 
Q 314.355938 46.472 314.355938 48.472 
L 314.355938 76.82825 
Q 314.355938 78.82825 316.355938 78.82825 
z
" style="fill:#ffffff;opacity:0.8;stroke:#cccccc;stroke-linejoin:miter;"/>
                </g>
                <g id="line2d_18">
                    <path d="M 318.355938 54.570437
L 338.355938 54.570437 
" style="fill:none;stroke:#1f77b4;stroke-linecap:square;stroke-width:1.5;"/>
                </g>
                <g id="line2d_19"/>
                <g id="text_16">
                    <!-- plant -->
                    <defs>
                        <path d="M 18.109375 8.203125
L 18.109375 -20.796875 
L 9.078125 -20.796875 
L 9.078125 54.6875 
L 18.109375 54.6875 
L 18.109375 46.390625 
Q 20.953125 51.265625 25.265625 53.625 
Q 29.59375 56 35.59375 56 
Q 45.5625 56 51.78125 48.09375 
Q 58.015625 40.1875 58.015625 27.296875 
Q 58.015625 14.40625 51.78125 6.484375 
Q 45.5625 -1.421875 35.59375 -1.421875 
Q 29.59375 -1.421875 25.265625 0.953125 
Q 20.953125 3.328125 18.109375 8.203125 
z
M 48.6875 27.296875 
Q 48.6875 37.203125 44.609375 42.84375 
Q 40.53125 48.484375 33.40625 48.484375 
Q 26.265625 48.484375 22.1875 42.84375 
Q 18.109375 37.203125 18.109375 27.296875 
Q 18.109375 17.390625 22.1875 11.75 
Q 26.265625 6.109375 33.40625 6.109375 
Q 40.53125 6.109375 44.609375 11.75 
Q 48.6875 17.390625 48.6875 27.296875 
z
" id="DejaVuSans-70"/>
                        <path d="M 9.421875 75.984375
L 18.40625 75.984375 
L 18.40625 0 
L 9.421875 0 
z
" id="DejaVuSans-6c"/>
                        <path d="M 34.28125 27.484375
Q 23.390625 27.484375 19.1875 25 
Q 14.984375 22.515625 14.984375 16.5 
Q 14.984375 11.71875 18.140625 8.90625 
Q 21.296875 6.109375 26.703125 6.109375 
Q 34.1875 6.109375 38.703125 11.40625 
Q 43.21875 16.703125 43.21875 25.484375 
L 43.21875 27.484375 
z
M 52.203125 31.203125 
L 52.203125 0 
L 43.21875 0 
L 43.21875 8.296875 
Q 40.140625 3.328125 35.546875 0.953125 
Q 30.953125 -1.421875 24.3125 -1.421875 
Q 15.921875 -1.421875 10.953125 3.296875 
Q 6 8.015625 6 15.921875 
Q 6 25.140625 12.171875 29.828125 
Q 18.359375 34.515625 30.609375 34.515625 
L 43.21875 34.515625 
L 43.21875 35.40625 
Q 43.21875 41.609375 39.140625 45 
Q 35.0625 48.390625 27.6875 48.390625 
Q 23 48.390625 18.546875 47.265625 
Q 14.109375 46.140625 10.015625 43.890625 
L 10.015625 52.203125 
Q 14.9375 54.109375 19.578125 55.046875 
Q 24.21875 56 28.609375 56 
Q 40.484375 56 46.34375 49.84375 
Q 52.203125 43.703125 52.203125 31.203125 
z
" id="DejaVuSans-61"/>
                        <path d="M 54.890625 33.015625
L 54.890625 0 
L 45.90625 0 
L 45.90625 32.71875 
Q 45.90625 40.484375 42.875 44.328125 
Q 39.84375 48.1875 33.796875 48.1875 
Q 26.515625 48.1875 22.3125 43.546875 
Q 18.109375 38.921875 18.109375 30.90625 
L 18.109375 0 
L 9.078125 0 
L 9.078125 54.6875 
L 18.109375 54.6875 
L 18.109375 46.1875 
Q 21.34375 51.125 25.703125 53.5625 
Q 30.078125 56 35.796875 56 
Q 45.21875 56 50.046875 50.171875 
Q 54.890625 44.34375 54.890625 33.015625 
z
" id="DejaVuSans-6e"/>
                        <path d="M 18.3125 70.21875
L 18.3125 54.6875 
L 36.8125 54.6875 
L 36.8125 47.703125 
L 18.3125 47.703125 
L 18.3125 18.015625 
Q 18.3125 11.328125 20.140625 9.421875 
Q 21.96875 7.515625 27.59375 7.515625 
L 36.8125 7.515625 
L 36.8125 0 
L 27.59375 0 
Q 17.1875 0 13.234375 3.875 
Q 9.28125 7.765625 9.28125 18.015625 
L 9.28125 47.703125 
L 2.6875 47.703125 
L 2.6875 54.6875 
L 9.28125 54.6875 
L 9.28125 70.21875 
z
" id="DejaVuSans-74"/>
                    </defs>
                    <g transform="translate(346.355938 58.070437)scale(0.1 -0.1)">
                        <use xlink:href="#DejaVuSans-70"/>
                        <use x="63.476562" xlink:href="#DejaVuSans-6c"/>
                        <use x="91.259766" xlink:href="#DejaVuSans-61"/>
                        <use x="152.539062" xlink:href="#DejaVuSans-6e"/>
                        <use x="215.917969" xlink:href="#DejaVuSans-74"/>
                    </g>
                </g>
                <g id="line2d_20">
                    <path d="M 318.355938 69.248562
L 338.355938 69.248562 
" style="fill:none;stroke:#ff7f0e;stroke-linecap:square;stroke-width:1.5;"/>
                </g>
                <g id="line2d_21"/>
                <g id="text_17">
                    <!-- background -->
                    <defs>
                        <path d="M 48.6875 27.296875
Q 48.6875 37.203125 44.609375 42.84375 
Q 40.53125 48.484375 33.40625 48.484375 
Q 26.265625 48.484375 22.1875 42.84375 
Q 18.109375 37.203125 18.109375 27.296875 
Q 18.109375 17.390625 22.1875 11.75 
Q 26.265625 6.109375 33.40625 6.109375 
Q 40.53125 6.109375 44.609375 11.75 
Q 48.6875 17.390625 48.6875 27.296875 
z
M 18.109375 46.390625 
Q 20.953125 51.265625 25.265625 53.625 
Q 29.59375 56 35.59375 56 
Q 45.5625 56 51.78125 48.09375 
Q 58.015625 40.1875 58.015625 27.296875 
Q 58.015625 14.40625 51.78125 6.484375 
Q 45.5625 -1.421875 35.59375 -1.421875 
Q 29.59375 -1.421875 25.265625 0.953125 
Q 20.953125 3.328125 18.109375 8.203125 
L 18.109375 0 
L 9.078125 0 
L 9.078125 75.984375 
L 18.109375 75.984375 
z
" id="DejaVuSans-62"/>
                        <path d="M 48.78125 52.59375
L 48.78125 44.1875 
Q 44.96875 46.296875 41.140625 47.34375 
Q 37.3125 48.390625 33.40625 48.390625 
Q 24.65625 48.390625 19.8125 42.84375 
Q 14.984375 37.3125 14.984375 27.296875 
Q 14.984375 17.28125 19.8125 11.734375 
Q 24.65625 6.203125 33.40625 6.203125 
Q 37.3125 6.203125 41.140625 7.25 
Q 44.96875 8.296875 48.78125 10.40625 
L 48.78125 2.09375 
Q 45.015625 0.34375 40.984375 -0.53125 
Q 36.96875 -1.421875 32.421875 -1.421875 
Q 20.0625 -1.421875 12.78125 6.34375 
Q 5.515625 14.109375 5.515625 27.296875 
Q 5.515625 40.671875 12.859375 48.328125 
Q 20.21875 56 33.015625 56 
Q 37.15625 56 41.109375 55.140625 
Q 45.0625 54.296875 48.78125 52.59375 
z
" id="DejaVuSans-63"/>
                        <path d="M 9.078125 75.984375
L 18.109375 75.984375 
L 18.109375 31.109375 
L 44.921875 54.6875 
L 56.390625 54.6875 
L 27.390625 29.109375 
L 57.625 0 
L 45.90625 0 
L 18.109375 26.703125 
L 18.109375 0 
L 9.078125 0 
z
" id="DejaVuSans-6b"/>
                        <path d="M 45.40625 27.984375
Q 45.40625 37.75 41.375 43.109375 
Q 37.359375 48.484375 30.078125 48.484375 
Q 22.859375 48.484375 18.828125 43.109375 
Q 14.796875 37.75 14.796875 27.984375 
Q 14.796875 18.265625 18.828125 12.890625 
Q 22.859375 7.515625 30.078125 7.515625 
Q 37.359375 7.515625 41.375 12.890625 
Q 45.40625 18.265625 45.40625 27.984375 
z
M 54.390625 6.78125 
Q 54.390625 -7.171875 48.1875 -13.984375 
Q 42 -20.796875 29.203125 -20.796875 
Q 24.46875 -20.796875 20.265625 -20.09375 
Q 16.0625 -19.390625 12.109375 -17.921875 
L 12.109375 -9.1875 
Q 16.0625 -11.328125 19.921875 -12.34375 
Q 23.78125 -13.375 27.78125 -13.375 
Q 36.625 -13.375 41.015625 -8.765625 
Q 45.40625 -4.15625 45.40625 5.171875 
L 45.40625 9.625 
Q 42.625 4.78125 38.28125 2.390625 
Q 33.9375 0 27.875 0 
Q 17.828125 0 11.671875 7.65625 
Q 5.515625 15.328125 5.515625 27.984375 
Q 5.515625 40.671875 11.671875 48.328125 
Q 17.828125 56 27.875 56 
Q 33.9375 56 38.28125 53.609375 
Q 42.625 51.21875 45.40625 46.390625 
L 45.40625 54.6875 
L 54.390625 54.6875 
z
" id="DejaVuSans-67"/>
                        <path d="M 41.109375 46.296875
Q 39.59375 47.171875 37.8125 47.578125 
Q 36.03125 48 33.890625 48 
Q 26.265625 48 22.1875 43.046875 
Q 18.109375 38.09375 18.109375 28.8125 
L 18.109375 0 
L 9.078125 0 
L 9.078125 54.6875 
L 18.109375 54.6875 
L 18.109375 46.1875 
Q 20.953125 51.171875 25.484375 53.578125 
Q 30.03125 56 36.53125 56 
Q 37.453125 56 38.578125 55.875 
Q 39.703125 55.765625 41.0625 55.515625 
z
" id="DejaVuSans-72"/>
                        <path d="M 30.609375 48.390625
Q 23.390625 48.390625 19.1875 42.75 
Q 14.984375 37.109375 14.984375 27.296875 
Q 14.984375 17.484375 19.15625 11.84375 
Q 23.34375 6.203125 30.609375 6.203125 
Q 37.796875 6.203125 41.984375 11.859375 
Q 46.1875 17.53125 46.1875 27.296875 
Q 46.1875 37.015625 41.984375 42.703125 
Q 37.796875 48.390625 30.609375 48.390625 
z
M 30.609375 56 
Q 42.328125 56 49.015625 48.375 
Q 55.71875 40.765625 55.71875 27.296875 
Q 55.71875 13.875 49.015625 6.21875 
Q 42.328125 -1.421875 30.609375 -1.421875 
Q 18.84375 -1.421875 12.171875 6.21875 
Q 5.515625 13.875 5.515625 27.296875 
Q 5.515625 40.765625 12.171875 48.375 
Q 18.84375 56 30.609375 56 
z
" id="DejaVuSans-6f"/>
                        <path d="M 8.5 21.578125
L 8.5 54.6875 
L 17.484375 54.6875 
L 17.484375 21.921875 
Q 17.484375 14.15625 20.5 10.265625 
Q 23.53125 6.390625 29.59375 6.390625 
Q 36.859375 6.390625 41.078125 11.03125 
Q 45.3125 15.671875 45.3125 23.6875 
L 45.3125 54.6875 
L 54.296875 54.6875 
L 54.296875 0 
L 45.3125 0 
L 45.3125 8.40625 
Q 42.046875 3.421875 37.71875 1 
Q 33.40625 -1.421875 27.6875 -1.421875 
Q 18.265625 -1.421875 13.375 4.4375 
Q 8.5 10.296875 8.5 21.578125 
z
M 31.109375 56 
z
" id="DejaVuSans-75"/>
                        <path d="M 45.40625 46.390625
L 45.40625 75.984375 
L 54.390625 75.984375 
L 54.390625 0 
L 45.40625 0 
L 45.40625 8.203125 
Q 42.578125 3.328125 38.25 0.953125 
Q 33.9375 -1.421875 27.875 -1.421875 
Q 17.96875 -1.421875 11.734375 6.484375 
Q 5.515625 14.40625 5.515625 27.296875 
Q 5.515625 40.1875 11.734375 48.09375 
Q 17.96875 56 27.875 56 
Q 33.9375 56 38.25 53.625 
Q 42.578125 51.265625 45.40625 46.390625 
z
M 14.796875 27.296875 
Q 14.796875 17.390625 18.875 11.75 
Q 22.953125 6.109375 30.078125 6.109375 
Q 37.203125 6.109375 41.296875 11.75 
Q 45.40625 17.390625 45.40625 27.296875 
Q 45.40625 37.203125 41.296875 42.84375 
Q 37.203125 48.484375 30.078125 48.484375 
Q 22.953125 48.484375 18.875 42.84375 
Q 14.796875 37.203125 14.796875 27.296875 
z
" id="DejaVuSans-64"/>
                    </defs>
                    <g transform="translate(346.355938 72.748562)scale(0.1 -0.1)">
                        <use xlink:href="#DejaVuSans-62"/>
                        <use x="63.476562" xlink:href="#DejaVuSans-61"/>
                        <use x="124.755859" xlink:href="#DejaVuSans-63"/>
                        <use x="179.736328" xlink:href="#DejaVuSans-6b"/>
                        <use x="237.646484" xlink:href="#DejaVuSans-67"/>
                        <use x="301.123047" xlink:href="#DejaVuSans-72"/>
                        <use x="342.205078" xlink:href="#DejaVuSans-6f"/>
                        <use x="403.386719" xlink:href="#DejaVuSans-75"/>
                        <use x="466.765625" xlink:href="#DejaVuSans-6e"/>
                        <use x="530.144531" xlink:href="#DejaVuSans-64"/>
                    </g>
                </g>
            </g>
        </g>
    </g>
    <defs>
        <clipPath id="p76cb9dd431">
            <rect height="266.112" width="357.12" x="57.6" y="41.472"/>
        </clipPath>
    </defs>
</svg>
