<?xml version="1.0" encoding="utf-8" standalone="no"?>
<!DOCTYPE svg PUBLIC "-//W3C//DTD SVG 1.1//EN"
        "http://www.w3.org/Graphics/SVG/1.1/DTD/svg11.dtd">
<!-- Created with matplotlib (http://matplotlib.org/) -->
<svg xmlns:xlink="http://www.w3.org/1999/xlink" height="345pt" version="1.1" viewBox="0 0 460 345" width="460pt"
     xmlns="http://www.w3.org/2000/svg">
    <defs>
        <style type="text/css">
            *{stroke-linecap:butt;stroke-linejoin:round;}
        </style>
    </defs>
    <g id="figure_1">
        <g id="patch_1">
            <path d="M 0 345.6
L 460.8 345.6 
L 460.8 0 
L 0 0 
z
" style="fill:#ffffff;"/>
        </g>
        <g id="axes_1">
            <g id="patch_2">
                <path d="M 57.6 307.584
L 414.72 307.584 
L 414.72 41.472 
L 57.6 41.472 
z
" style="fill:#ffffff;"/>
            </g>
            <g id="matplotlib.axis_1">
                <g id="xtick_1">
                    <g id="line2d_1">
                        <defs>
                            <path d="M 0 0
L 0 3.5 
" id="m9a584205f8" style="stroke:#000000;stroke-width:0.8;"/>
                        </defs>
                        <g>
                            <use style="stroke:#000000;stroke-width:0.8;" x="73.832727" xlink:href="#m9a584205f8"
                                 y="307.584"/>
                        </g>
                    </g>
                    <g id="text_1">
                        <!-- 0 -->
                        <defs>
                            <path d="M 31.78125 66.40625
Q 24.171875 66.40625 20.328125 58.90625 
Q 16.5 51.421875 16.5 36.375 
Q 16.5 21.390625 20.328125 13.890625 
Q 24.171875 6.390625 31.78125 6.390625 
Q 39.453125 6.390625 43.28125 13.890625 
Q 47.125 21.390625 47.125 36.375 
Q 47.125 51.421875 43.28125 58.90625 
Q 39.453125 66.40625 31.78125 66.40625 
z
M 31.78125 74.21875 
Q 44.046875 74.21875 50.515625 64.515625 
Q 56.984375 54.828125 56.984375 36.375 
Q 56.984375 17.96875 50.515625 8.265625 
Q 44.046875 -1.421875 31.78125 -1.421875 
Q 19.53125 -1.421875 13.0625 8.265625 
Q 6.59375 17.96875 6.59375 36.375 
Q 6.59375 54.828125 13.0625 64.515625 
Q 19.53125 74.21875 31.78125 74.21875 
z
" id="DejaVuSans-30"/>
                        </defs>
                        <g transform="translate(70.651477 322.182437)scale(0.1 -0.1)">
                            <use xlink:href="#DejaVuSans-30"/>
                        </g>
                    </g>
                </g>
                <g id="xtick_2">
                    <g id="line2d_2">
                        <g>
                            <use style="stroke:#000000;stroke-width:0.8;" x="137.490481" xlink:href="#m9a584205f8"
                                 y="307.584"/>
                        </g>
                    </g>
                    <g id="text_2">
                        <!-- 50 -->
                        <defs>
                            <path d="M 10.796875 72.90625
L 49.515625 72.90625 
L 49.515625 64.59375 
L 19.828125 64.59375 
L 19.828125 46.734375 
Q 21.96875 47.46875 24.109375 47.828125 
Q 26.265625 48.1875 28.421875 48.1875 
Q 40.625 48.1875 47.75 41.5 
Q 54.890625 34.8125 54.890625 23.390625 
Q 54.890625 11.625 47.5625 5.09375 
Q 40.234375 -1.421875 26.90625 -1.421875 
Q 22.3125 -1.421875 17.546875 -0.640625 
Q 12.796875 0.140625 7.71875 1.703125 
L 7.71875 11.625 
Q 12.109375 9.234375 16.796875 8.0625 
Q 21.484375 6.890625 26.703125 6.890625 
Q 35.15625 6.890625 40.078125 11.328125 
Q 45.015625 15.765625 45.015625 23.390625 
Q 45.015625 31 40.078125 35.4375 
Q 35.15625 39.890625 26.703125 39.890625 
Q 22.75 39.890625 18.8125 39.015625 
Q 14.890625 38.140625 10.796875 36.28125 
z
" id="DejaVuSans-35"/>
                        </defs>
                        <g transform="translate(131.127981 322.182437)scale(0.1 -0.1)">
                            <use xlink:href="#DejaVuSans-35"/>
                            <use x="63.623047" xlink:href="#DejaVuSans-30"/>
                        </g>
                    </g>
                </g>
                <g id="xtick_3">
                    <g id="line2d_3">
                        <g>
                            <use style="stroke:#000000;stroke-width:0.8;" x="201.148235" xlink:href="#m9a584205f8"
                                 y="307.584"/>
                        </g>
                    </g>
                    <g id="text_3">
                        <!-- 100 -->
                        <defs>
                            <path d="M 12.40625 8.296875
L 28.515625 8.296875 
L 28.515625 63.921875 
L 10.984375 60.40625 
L 10.984375 69.390625 
L 28.421875 72.90625 
L 38.28125 72.90625 
L 38.28125 8.296875 
L 54.390625 8.296875 
L 54.390625 0 
L 12.40625 0 
z
" id="DejaVuSans-31"/>
                        </defs>
                        <g transform="translate(191.604485 322.182437)scale(0.1 -0.1)">
                            <use xlink:href="#DejaVuSans-31"/>
                            <use x="63.623047" xlink:href="#DejaVuSans-30"/>
                            <use x="127.246094" xlink:href="#DejaVuSans-30"/>
                        </g>
                    </g>
                </g>
                <g id="xtick_4">
                    <g id="line2d_4">
                        <g>
                            <use style="stroke:#000000;stroke-width:0.8;" x="264.805989" xlink:href="#m9a584205f8"
                                 y="307.584"/>
                        </g>
                    </g>
                    <g id="text_4">
                        <!-- 150 -->
                        <g transform="translate(255.262239 322.182437)scale(0.1 -0.1)">
                            <use xlink:href="#DejaVuSans-31"/>
                            <use x="63.623047" xlink:href="#DejaVuSans-35"/>
                            <use x="127.246094" xlink:href="#DejaVuSans-30"/>
                        </g>
                    </g>
                </g>
                <g id="xtick_5">
                    <g id="line2d_5">
                        <g>
                            <use style="stroke:#000000;stroke-width:0.8;" x="328.463743" xlink:href="#m9a584205f8"
                                 y="307.584"/>
                        </g>
                    </g>
                    <g id="text_5">
                        <!-- 200 -->
                        <defs>
                            <path d="M 19.1875 8.296875
L 53.609375 8.296875 
L 53.609375 0 
L 7.328125 0 
L 7.328125 8.296875 
Q 12.9375 14.109375 22.625 23.890625 
Q 32.328125 33.6875 34.8125 36.53125 
Q 39.546875 41.84375 41.421875 45.53125 
Q 43.3125 49.21875 43.3125 52.78125 
Q 43.3125 58.59375 39.234375 62.25 
Q 35.15625 65.921875 28.609375 65.921875 
Q 23.96875 65.921875 18.8125 64.3125 
Q 13.671875 62.703125 7.8125 59.421875 
L 7.8125 69.390625 
Q 13.765625 71.78125 18.9375 73 
Q 24.125 74.21875 28.421875 74.21875 
Q 39.75 74.21875 46.484375 68.546875 
Q 53.21875 62.890625 53.21875 53.421875 
Q 53.21875 48.921875 51.53125 44.890625 
Q 49.859375 40.875 45.40625 35.40625 
Q 44.1875 33.984375 37.640625 27.21875 
Q 31.109375 20.453125 19.1875 8.296875 
z
" id="DejaVuSans-32"/>
                        </defs>
                        <g transform="translate(318.919993 322.182437)scale(0.1 -0.1)">
                            <use xlink:href="#DejaVuSans-32"/>
                            <use x="63.623047" xlink:href="#DejaVuSans-30"/>
                            <use x="127.246094" xlink:href="#DejaVuSans-30"/>
                        </g>
                    </g>
                </g>
                <g id="xtick_6">
                    <g id="line2d_6">
                        <g>
                            <use style="stroke:#000000;stroke-width:0.8;" x="392.121497" xlink:href="#m9a584205f8"
                                 y="307.584"/>
                        </g>
                    </g>
                    <g id="text_6">
                        <!-- 250 -->
                        <g transform="translate(382.577747 322.182437)scale(0.1 -0.1)">
                            <use xlink:href="#DejaVuSans-32"/>
                            <use x="63.623047" xlink:href="#DejaVuSans-35"/>
                            <use x="127.246094" xlink:href="#DejaVuSans-30"/>
                        </g>
                    </g>
                </g>
            </g>
            <g id="matplotlib.axis_2">
                <g id="ytick_1">
                    <g id="line2d_7">
                        <defs>
                            <path d="M 0 0
L -3.5 0 
" id="m8c9e248045" style="stroke:#000000;stroke-width:0.8;"/>
                        </defs>
                        <g>
                            <use style="stroke:#000000;stroke-width:0.8;" x="57.6" xlink:href="#m8c9e248045"
                                 y="295.488002"/>
                        </g>
                    </g>
                    <g id="text_7">
                        <!-- 0.0000 -->
                        <defs>
                            <path d="M 10.6875 12.40625
L 21 12.40625 
L 21 0 
L 10.6875 0 
z
" id="DejaVuSans-2e"/>
                        </defs>
                        <g transform="translate(15.609375 299.28722)scale(0.1 -0.1)">
                            <use xlink:href="#DejaVuSans-30"/>
                            <use x="63.623047" xlink:href="#DejaVuSans-2e"/>
                            <use x="95.410156" xlink:href="#DejaVuSans-30"/>
                            <use x="159.033203" xlink:href="#DejaVuSans-30"/>
                            <use x="222.65625" xlink:href="#DejaVuSans-30"/>
                            <use x="286.279297" xlink:href="#DejaVuSans-30"/>
                        </g>
                    </g>
                </g>
                <g id="ytick_2">
                    <g id="line2d_8">
                        <g>
                            <use style="stroke:#000000;stroke-width:0.8;" x="57.6" xlink:href="#m8c9e248045"
                                 y="265.194447"/>
                        </g>
                    </g>
                    <g id="text_8">
                        <!-- 0.0025 -->
                        <g transform="translate(15.609375 268.993666)scale(0.1 -0.1)">
                            <use xlink:href="#DejaVuSans-30"/>
                            <use x="63.623047" xlink:href="#DejaVuSans-2e"/>
                            <use x="95.410156" xlink:href="#DejaVuSans-30"/>
                            <use x="159.033203" xlink:href="#DejaVuSans-30"/>
                            <use x="222.65625" xlink:href="#DejaVuSans-32"/>
                            <use x="286.279297" xlink:href="#DejaVuSans-35"/>
                        </g>
                    </g>
                </g>
                <g id="ytick_3">
                    <g id="line2d_9">
                        <g>
                            <use style="stroke:#000000;stroke-width:0.8;" x="57.6" xlink:href="#m8c9e248045"
                                 y="234.900893"/>
                        </g>
                    </g>
                    <g id="text_9">
                        <!-- 0.0050 -->
                        <g transform="translate(15.609375 238.700112)scale(0.1 -0.1)">
                            <use xlink:href="#DejaVuSans-30"/>
                            <use x="63.623047" xlink:href="#DejaVuSans-2e"/>
                            <use x="95.410156" xlink:href="#DejaVuSans-30"/>
                            <use x="159.033203" xlink:href="#DejaVuSans-30"/>
                            <use x="222.65625" xlink:href="#DejaVuSans-35"/>
                            <use x="286.279297" xlink:href="#DejaVuSans-30"/>
                        </g>
                    </g>
                </g>
                <g id="ytick_4">
                    <g id="line2d_10">
                        <g>
                            <use style="stroke:#000000;stroke-width:0.8;" x="57.6" xlink:href="#m8c9e248045"
                                 y="204.607338"/>
                        </g>
                    </g>
                    <g id="text_10">
                        <!-- 0.0075 -->
                        <defs>
                            <path d="M 8.203125 72.90625
L 55.078125 72.90625 
L 55.078125 68.703125 
L 28.609375 0 
L 18.3125 0 
L 43.21875 64.59375 
L 8.203125 64.59375 
z
" id="DejaVuSans-37"/>
                        </defs>
                        <g transform="translate(15.609375 208.406557)scale(0.1 -0.1)">
                            <use xlink:href="#DejaVuSans-30"/>
                            <use x="63.623047" xlink:href="#DejaVuSans-2e"/>
                            <use x="95.410156" xlink:href="#DejaVuSans-30"/>
                            <use x="159.033203" xlink:href="#DejaVuSans-30"/>
                            <use x="222.65625" xlink:href="#DejaVuSans-37"/>
                            <use x="286.279297" xlink:href="#DejaVuSans-35"/>
                        </g>
                    </g>
                </g>
                <g id="ytick_5">
                    <g id="line2d_11">
                        <g>
                            <use style="stroke:#000000;stroke-width:0.8;" x="57.6" xlink:href="#m8c9e248045"
                                 y="174.313784"/>
                        </g>
                    </g>
                    <g id="text_11">
                        <!-- 0.0100 -->
                        <g transform="translate(15.609375 178.113003)scale(0.1 -0.1)">
                            <use xlink:href="#DejaVuSans-30"/>
                            <use x="63.623047" xlink:href="#DejaVuSans-2e"/>
                            <use x="95.410156" xlink:href="#DejaVuSans-30"/>
                            <use x="159.033203" xlink:href="#DejaVuSans-31"/>
                            <use x="222.65625" xlink:href="#DejaVuSans-30"/>
                            <use x="286.279297" xlink:href="#DejaVuSans-30"/>
                        </g>
                    </g>
                </g>
                <g id="ytick_6">
                    <g id="line2d_12">
                        <g>
                            <use style="stroke:#000000;stroke-width:0.8;" x="57.6" xlink:href="#m8c9e248045"
                                 y="144.02023"/>
                        </g>
                    </g>
                    <g id="text_12">
                        <!-- 0.0125 -->
                        <g transform="translate(15.609375 147.819448)scale(0.1 -0.1)">
                            <use xlink:href="#DejaVuSans-30"/>
                            <use x="63.623047" xlink:href="#DejaVuSans-2e"/>
                            <use x="95.410156" xlink:href="#DejaVuSans-30"/>
                            <use x="159.033203" xlink:href="#DejaVuSans-31"/>
                            <use x="222.65625" xlink:href="#DejaVuSans-32"/>
                            <use x="286.279297" xlink:href="#DejaVuSans-35"/>
                        </g>
                    </g>
                </g>
                <g id="ytick_7">
                    <g id="line2d_13">
                        <g>
                            <use style="stroke:#000000;stroke-width:0.8;" x="57.6" xlink:href="#m8c9e248045"
                                 y="113.726675"/>
                        </g>
                    </g>
                    <g id="text_13">
                        <!-- 0.0150 -->
                        <g transform="translate(15.609375 117.525894)scale(0.1 -0.1)">
                            <use xlink:href="#DejaVuSans-30"/>
                            <use x="63.623047" xlink:href="#DejaVuSans-2e"/>
                            <use x="95.410156" xlink:href="#DejaVuSans-30"/>
                            <use x="159.033203" xlink:href="#DejaVuSans-31"/>
                            <use x="222.65625" xlink:href="#DejaVuSans-35"/>
                            <use x="286.279297" xlink:href="#DejaVuSans-30"/>
                        </g>
                    </g>
                </g>
                <g id="ytick_8">
                    <g id="line2d_14">
                        <g>
                            <use style="stroke:#000000;stroke-width:0.8;" x="57.6" xlink:href="#m8c9e248045"
                                 y="83.433121"/>
                        </g>
                    </g>
                    <g id="text_14">
                        <!-- 0.0175 -->
                        <g transform="translate(15.609375 87.232339)scale(0.1 -0.1)">
                            <use xlink:href="#DejaVuSans-30"/>
                            <use x="63.623047" xlink:href="#DejaVuSans-2e"/>
                            <use x="95.410156" xlink:href="#DejaVuSans-30"/>
                            <use x="159.033203" xlink:href="#DejaVuSans-31"/>
                            <use x="222.65625" xlink:href="#DejaVuSans-37"/>
                            <use x="286.279297" xlink:href="#DejaVuSans-35"/>
                        </g>
                    </g>
                </g>
                <g id="ytick_9">
                    <g id="line2d_15">
                        <g>
                            <use style="stroke:#000000;stroke-width:0.8;" x="57.6" xlink:href="#m8c9e248045"
                                 y="53.139566"/>
                        </g>
                    </g>
                    <g id="text_15">
                        <!-- 0.0200 -->
                        <g transform="translate(15.609375 56.938785)scale(0.1 -0.1)">
                            <use xlink:href="#DejaVuSans-30"/>
                            <use x="63.623047" xlink:href="#DejaVuSans-2e"/>
                            <use x="95.410156" xlink:href="#DejaVuSans-30"/>
                            <use x="159.033203" xlink:href="#DejaVuSans-32"/>
                            <use x="222.65625" xlink:href="#DejaVuSans-30"/>
                            <use x="286.279297" xlink:href="#DejaVuSans-30"/>
                        </g>
                    </g>
                </g>
            </g>
            <g id="line2d_16">
                <path clip-path="url(#p8a84737a22)" d="M 73.832727 295.488
L 82.744813 295.404361 
L 86.564278 295.108059 
L 89.110588 294.840394 
L 94.203209 294.616802 
L 96.749519 294.156822 
L 99.295829 293.30693 
L 100.568984 292.749781 
L 101.842139 292.038645 
L 103.115294 291.128969 
L 105.661604 288.862905 
L 112.02738 282.73475 
L 113.300535 281.27545 
L 119.66631 272.629212 
L 120.939465 270.691738 
L 122.21262 268.15007 
L 123.485775 264.983982 
L 126.032086 257.695679 
L 128.578396 249.815799 
L 129.851551 245.470046 
L 131.124706 240.450635 
L 133.671016 228.033061 
L 134.944171 221.848792 
L 136.217326 216.334023 
L 138.763636 206.073686 
L 140.036791 199.821801 
L 142.583102 185.809922 
L 145.129412 173.004658 
L 146.402567 165.747158 
L 148.948877 150.374029 
L 150.222032 144.843727 
L 151.495187 140.507018 
L 152.768342 135.171742 
L 154.041497 126.533191 
L 155.314652 115.763568 
L 156.587807 107.463399 
L 159.134118 98.284202 
L 160.407273 91.660294 
L 162.953583 74.533197 
L 164.226738 68.006028 
L 165.499893 64.829986 
L 168.046203 63.146698 
L 169.319358 60.521759 
L 170.592513 56.186278 
L 171.865668 53.568 
L 173.138824 55.816516 
L 174.411979 59.666432 
L 175.685134 60.053206 
L 176.958289 58.885814 
L 178.231444 60.497708 
L 179.504599 63.734747 
L 180.777754 65.82012 
L 182.050909 68.703195 
L 183.324064 73.864407 
L 184.597219 77.907289 
L 185.870374 80.64644 
L 187.143529 85.842227 
L 188.416684 93.889217 
L 192.23615 120.542351 
L 193.509305 127.61415 
L 196.055615 138.48901 
L 197.32877 144.943895 
L 198.601925 150.629101 
L 199.87508 155.281667 
L 201.148235 161.312905 
L 204.967701 187.344288 
L 206.240856 193.561835 
L 207.514011 198.086346 
L 208.787166 201.572449 
L 210.060321 205.811606 
L 211.333476 212.237232 
L 212.606631 220.130143 
L 213.879786 226.983079 
L 215.152941 230.980569 
L 216.426096 233.282083 
L 217.699251 236.606214 
L 220.245561 246.373366 
L 221.518717 249.04738 
L 222.791872 250.496837 
L 224.065027 252.557826 
L 225.338182 255.207281 
L 226.611337 257.311031 
L 229.157647 260.234854 
L 230.430802 262.007122 
L 231.703957 264.469068 
L 232.977112 267.287657 
L 234.250267 268.949345 
L 235.523422 269.584978 
L 236.796578 271.462846 
L 238.069733 274.65448 
L 239.342888 276.943829 
L 240.616043 277.841558 
L 241.889198 278.463922 
L 243.162353 279.269386 
L 244.435508 280.229179 
L 245.708663 281.573851 
L 248.254973 284.962082 
L 249.528128 286.250157 
L 250.801283 287.259727 
L 253.347594 288.796543 
L 257.167059 290.606694 
L 259.713369 291.515562 
L 264.805989 292.965606 
L 267.352299 293.381801 
L 274.99123 294.149332 
L 278.810695 294.60391 
L 285.176471 294.957296 
L 288.995936 295.078458 
L 295.361711 295.130364 
L 337.375829 295.381386 
L 343.741604 295.43848 
L 376.843636 295.420971 
L 384.482567 295.465747 
L 394.667807 295.437632 
L 398.487273 295.110733 
L 398.487273 295.110733 
" style="fill:none;stroke:#1f77b4;stroke-linecap:square;stroke-width:1.5;"/>
            </g>
            <g id="line2d_17">
                <path clip-path="url(#p8a84737a22)" d="M 73.832727 181.437117
L 75.105882 152.484379 
L 76.379037 126.501695 
L 77.652193 105.638563 
L 78.925348 91.318924 
L 80.198503 84.463581 
L 81.471658 85.556098 
L 82.744813 94.359813 
L 84.017968 109.561877 
L 87.837433 167.920136 
L 89.110588 183.304475 
L 90.383743 194.437492 
L 91.656898 201.310785 
L 92.930053 204.418139 
L 94.203209 204.418601 
L 95.476364 201.906838 
L 96.749519 197.336261 
L 98.022674 191.077042 
L 99.295829 183.546881 
L 101.842139 167.321467 
L 103.115294 160.532333 
L 104.388449 156.020796 
L 105.661604 154.495047 
L 106.934759 156.042227 
L 108.207914 160.05354 
L 110.754225 170.910213 
L 112.02738 175.555116 
L 113.300535 178.919354 
L 114.57369 181.167984 
L 115.846845 182.910654 
L 117.12 184.860829 
L 118.393155 187.458355 
L 122.21262 197.048687 
L 123.485775 199.310867 
L 124.75893 200.710481 
L 126.032086 201.304931 
L 127.305241 201.198053 
L 128.578396 200.479943 
L 129.851551 199.246688 
L 131.124706 197.639364 
L 134.944171 192.445952 
L 136.217326 191.074008 
L 137.490481 189.965954 
L 138.763636 189.10394 
L 140.036791 188.473375 
L 141.309947 188.096876 
L 142.583102 188.051711 
L 143.856257 188.460543 
L 145.129412 189.453592 
L 146.402567 191.115722 
L 147.675722 193.443976 
L 148.948877 196.337939 
L 151.495187 203.114846 
L 154.041497 210.004688 
L 155.314652 213.145489 
L 156.587807 215.957163 
L 157.860963 218.383619 
L 159.134118 220.414148 
L 160.407273 222.08703 
L 161.680428 223.470352 
L 162.953583 224.628243 
L 164.226738 225.597089 
L 165.499893 226.38912 
L 166.773048 227.016505 
L 169.319358 227.931104 
L 175.685134 229.895469 
L 179.504599 230.733354 
L 180.777754 231.217918 
L 182.050909 231.943034 
L 183.324064 232.912726 
L 185.870374 235.336736 
L 189.68984 239.410675 
L 194.78246 245.000399 
L 197.32877 247.360164 
L 198.601925 248.345428 
L 199.87508 249.178757 
L 201.148235 249.841665 
L 202.42139 250.314019 
L 203.694545 250.585288 
L 206.240856 250.667424 
L 207.514011 250.682993 
L 208.787166 250.864765 
L 210.060321 251.303217 
L 211.333476 251.98965 
L 213.879786 253.593385 
L 215.152941 254.172721 
L 216.426096 254.461387 
L 217.699251 254.484213 
L 220.245561 254.305246 
L 221.518717 254.457784 
L 222.791872 254.920881 
L 224.065027 255.68469 
L 229.157647 259.510453 
L 230.430802 260.137821 
L 231.703957 260.548298 
L 232.977112 260.760088 
L 235.523422 260.766195 
L 239.342888 260.600843 
L 241.889198 260.843861 
L 244.435508 261.432342 
L 248.254973 262.733551 
L 250.801283 263.79216 
L 252.074439 264.465513 
L 253.347594 265.315632 
L 254.620749 266.399435 
L 255.893904 267.74891 
L 257.167059 269.35737 
L 259.713369 273.127776 
L 262.259679 277.061941 
L 264.805989 280.544403 
L 266.079144 282.010728 
L 267.352299 283.287428 
L 269.89861 285.378313 
L 272.44492 287.096595 
L 276.264385 289.349457 
L 278.810695 290.637602 
L 281.357005 291.70195 
L 283.903316 292.512243 
L 286.449626 293.069398 
L 290.269091 293.589591 
L 297.908021 294.383568 
L 303.000642 294.678009 
L 310.639572 294.840127 
L 355.2 295.224497 
L 392.121497 295.155978 
L 398.487273 294.653034 
L 398.487273 294.653034 
" style="fill:none;stroke:#ff7f0e;stroke-linecap:square;stroke-width:1.5;"/>
            </g>
            <g id="patch_3">
                <path d="M 57.6 307.584
L 57.6 41.472 
" style="fill:none;stroke:#000000;stroke-linecap:square;stroke-linejoin:miter;stroke-width:0.8;"/>
            </g>
            <g id="patch_4">
                <path d="M 414.72 307.584
L 414.72 41.472 
" style="fill:none;stroke:#000000;stroke-linecap:square;stroke-linejoin:miter;stroke-width:0.8;"/>
            </g>
            <g id="patch_5">
                <path d="M 57.6 307.584
L 414.72 307.584 
" style="fill:none;stroke:#000000;stroke-linecap:square;stroke-linejoin:miter;stroke-width:0.8;"/>
            </g>
            <g id="patch_6">
                <path d="M 57.6 41.472
L 414.72 41.472 
" style="fill:none;stroke:#000000;stroke-linecap:square;stroke-linejoin:miter;stroke-width:0.8;"/>
            </g>
            <g id="legend_1">
                <g id="patch_7">
                    <path d="M 316.355938 78.82825
L 407.72 78.82825 
Q 409.72 78.82825 409.72 76.82825 
L 409.72 48.472 
Q 409.72 46.472 407.72 46.472 
L 316.355938 46.472 
Q 314.355938 46.472 314.355938 48.472 
L 314.355938 76.82825 
Q 314.355938 78.82825 316.355938 78.82825 
z
" style="fill:#ffffff;opacity:0.8;stroke:#cccccc;stroke-linejoin:miter;"/>
                </g>
                <g id="line2d_18">
                    <path d="M 318.355938 54.570437
L 338.355938 54.570437 
" style="fill:none;stroke:#1f77b4;stroke-linecap:square;stroke-width:1.5;"/>
                </g>
                <g id="line2d_19"/>
                <g id="text_16">
                    <!-- plant -->
                    <defs>
                        <path d="M 18.109375 8.203125
L 18.109375 -20.796875 
L 9.078125 -20.796875 
L 9.078125 54.6875 
L 18.109375 54.6875 
L 18.109375 46.390625 
Q 20.953125 51.265625 25.265625 53.625 
Q 29.59375 56 35.59375 56 
Q 45.5625 56 51.78125 48.09375 
Q 58.015625 40.1875 58.015625 27.296875 
Q 58.015625 14.40625 51.78125 6.484375 
Q 45.5625 -1.421875 35.59375 -1.421875 
Q 29.59375 -1.421875 25.265625 0.953125 
Q 20.953125 3.328125 18.109375 8.203125 
z
M 48.6875 27.296875 
Q 48.6875 37.203125 44.609375 42.84375 
Q 40.53125 48.484375 33.40625 48.484375 
Q 26.265625 48.484375 22.1875 42.84375 
Q 18.109375 37.203125 18.109375 27.296875 
Q 18.109375 17.390625 22.1875 11.75 
Q 26.265625 6.109375 33.40625 6.109375 
Q 40.53125 6.109375 44.609375 11.75 
Q 48.6875 17.390625 48.6875 27.296875 
z
" id="DejaVuSans-70"/>
                        <path d="M 9.421875 75.984375
L 18.40625 75.984375 
L 18.40625 0 
L 9.421875 0 
z
" id="DejaVuSans-6c"/>
                        <path d="M 34.28125 27.484375
Q 23.390625 27.484375 19.1875 25 
Q 14.984375 22.515625 14.984375 16.5 
Q 14.984375 11.71875 18.140625 8.90625 
Q 21.296875 6.109375 26.703125 6.109375 
Q 34.1875 6.109375 38.703125 11.40625 
Q 43.21875 16.703125 43.21875 25.484375 
L 43.21875 27.484375 
z
M 52.203125 31.203125 
L 52.203125 0 
L 43.21875 0 
L 43.21875 8.296875 
Q 40.140625 3.328125 35.546875 0.953125 
Q 30.953125 -1.421875 24.3125 -1.421875 
Q 15.921875 -1.421875 10.953125 3.296875 
Q 6 8.015625 6 15.921875 
Q 6 25.140625 12.171875 29.828125 
Q 18.359375 34.515625 30.609375 34.515625 
L 43.21875 34.515625 
L 43.21875 35.40625 
Q 43.21875 41.609375 39.140625 45 
Q 35.0625 48.390625 27.6875 48.390625 
Q 23 48.390625 18.546875 47.265625 
Q 14.109375 46.140625 10.015625 43.890625 
L 10.015625 52.203125 
Q 14.9375 54.109375 19.578125 55.046875 
Q 24.21875 56 28.609375 56 
Q 40.484375 56 46.34375 49.84375 
Q 52.203125 43.703125 52.203125 31.203125 
z
" id="DejaVuSans-61"/>
                        <path d="M 54.890625 33.015625
L 54.890625 0 
L 45.90625 0 
L 45.90625 32.71875 
Q 45.90625 40.484375 42.875 44.328125 
Q 39.84375 48.1875 33.796875 48.1875 
Q 26.515625 48.1875 22.3125 43.546875 
Q 18.109375 38.921875 18.109375 30.90625 
L 18.109375 0 
L 9.078125 0 
L 9.078125 54.6875 
L 18.109375 54.6875 
L 18.109375 46.1875 
Q 21.34375 51.125 25.703125 53.5625 
Q 30.078125 56 35.796875 56 
Q 45.21875 56 50.046875 50.171875 
Q 54.890625 44.34375 54.890625 33.015625 
z
" id="DejaVuSans-6e"/>
                        <path d="M 18.3125 70.21875
L 18.3125 54.6875 
L 36.8125 54.6875 
L 36.8125 47.703125 
L 18.3125 47.703125 
L 18.3125 18.015625 
Q 18.3125 11.328125 20.140625 9.421875 
Q 21.96875 7.515625 27.59375 7.515625 
L 36.8125 7.515625 
L 36.8125 0 
L 27.59375 0 
Q 17.1875 0 13.234375 3.875 
Q 9.28125 7.765625 9.28125 18.015625 
L 9.28125 47.703125 
L 2.6875 47.703125 
L 2.6875 54.6875 
L 9.28125 54.6875 
L 9.28125 70.21875 
z
" id="DejaVuSans-74"/>
                    </defs>
                    <g transform="translate(346.355938 58.070437)scale(0.1 -0.1)">
                        <use xlink:href="#DejaVuSans-70"/>
                        <use x="63.476562" xlink:href="#DejaVuSans-6c"/>
                        <use x="91.259766" xlink:href="#DejaVuSans-61"/>
                        <use x="152.539062" xlink:href="#DejaVuSans-6e"/>
                        <use x="215.917969" xlink:href="#DejaVuSans-74"/>
                    </g>
                </g>
                <g id="line2d_20">
                    <path d="M 318.355938 69.248562
L 338.355938 69.248562 
" style="fill:none;stroke:#ff7f0e;stroke-linecap:square;stroke-width:1.5;"/>
                </g>
                <g id="line2d_21"/>
                <g id="text_17">
                    <!-- background -->
                    <defs>
                        <path d="M 48.6875 27.296875
Q 48.6875 37.203125 44.609375 42.84375 
Q 40.53125 48.484375 33.40625 48.484375 
Q 26.265625 48.484375 22.1875 42.84375 
Q 18.109375 37.203125 18.109375 27.296875 
Q 18.109375 17.390625 22.1875 11.75 
Q 26.265625 6.109375 33.40625 6.109375 
Q 40.53125 6.109375 44.609375 11.75 
Q 48.6875 17.390625 48.6875 27.296875 
z
M 18.109375 46.390625 
Q 20.953125 51.265625 25.265625 53.625 
Q 29.59375 56 35.59375 56 
Q 45.5625 56 51.78125 48.09375 
Q 58.015625 40.1875 58.015625 27.296875 
Q 58.015625 14.40625 51.78125 6.484375 
Q 45.5625 -1.421875 35.59375 -1.421875 
Q 29.59375 -1.421875 25.265625 0.953125 
Q 20.953125 3.328125 18.109375 8.203125 
L 18.109375 0 
L 9.078125 0 
L 9.078125 75.984375 
L 18.109375 75.984375 
z
" id="DejaVuSans-62"/>
                        <path d="M 48.78125 52.59375
L 48.78125 44.1875 
Q 44.96875 46.296875 41.140625 47.34375 
Q 37.3125 48.390625 33.40625 48.390625 
Q 24.65625 48.390625 19.8125 42.84375 
Q 14.984375 37.3125 14.984375 27.296875 
Q 14.984375 17.28125 19.8125 11.734375 
Q 24.65625 6.203125 33.40625 6.203125 
Q 37.3125 6.203125 41.140625 7.25 
Q 44.96875 8.296875 48.78125 10.40625 
L 48.78125 2.09375 
Q 45.015625 0.34375 40.984375 -0.53125 
Q 36.96875 -1.421875 32.421875 -1.421875 
Q 20.0625 -1.421875 12.78125 6.34375 
Q 5.515625 14.109375 5.515625 27.296875 
Q 5.515625 40.671875 12.859375 48.328125 
Q 20.21875 56 33.015625 56 
Q 37.15625 56 41.109375 55.140625 
Q 45.0625 54.296875 48.78125 52.59375 
z
" id="DejaVuSans-63"/>
                        <path d="M 9.078125 75.984375
L 18.109375 75.984375 
L 18.109375 31.109375 
L 44.921875 54.6875 
L 56.390625 54.6875 
L 27.390625 29.109375 
L 57.625 0 
L 45.90625 0 
L 18.109375 26.703125 
L 18.109375 0 
L 9.078125 0 
z
" id="DejaVuSans-6b"/>
                        <path d="M 45.40625 27.984375
Q 45.40625 37.75 41.375 43.109375 
Q 37.359375 48.484375 30.078125 48.484375 
Q 22.859375 48.484375 18.828125 43.109375 
Q 14.796875 37.75 14.796875 27.984375 
Q 14.796875 18.265625 18.828125 12.890625 
Q 22.859375 7.515625 30.078125 7.515625 
Q 37.359375 7.515625 41.375 12.890625 
Q 45.40625 18.265625 45.40625 27.984375 
z
M 54.390625 6.78125 
Q 54.390625 -7.171875 48.1875 -13.984375 
Q 42 -20.796875 29.203125 -20.796875 
Q 24.46875 -20.796875 20.265625 -20.09375 
Q 16.0625 -19.390625 12.109375 -17.921875 
L 12.109375 -9.1875 
Q 16.0625 -11.328125 19.921875 -12.34375 
Q 23.78125 -13.375 27.78125 -13.375 
Q 36.625 -13.375 41.015625 -8.765625 
Q 45.40625 -4.15625 45.40625 5.171875 
L 45.40625 9.625 
Q 42.625 4.78125 38.28125 2.390625 
Q 33.9375 0 27.875 0 
Q 17.828125 0 11.671875 7.65625 
Q 5.515625 15.328125 5.515625 27.984375 
Q 5.515625 40.671875 11.671875 48.328125 
Q 17.828125 56 27.875 56 
Q 33.9375 56 38.28125 53.609375 
Q 42.625 51.21875 45.40625 46.390625 
L 45.40625 54.6875 
L 54.390625 54.6875 
z
" id="DejaVuSans-67"/>
                        <path d="M 41.109375 46.296875
Q 39.59375 47.171875 37.8125 47.578125 
Q 36.03125 48 33.890625 48 
Q 26.265625 48 22.1875 43.046875 
Q 18.109375 38.09375 18.109375 28.8125 
L 18.109375 0 
L 9.078125 0 
L 9.078125 54.6875 
L 18.109375 54.6875 
L 18.109375 46.1875 
Q 20.953125 51.171875 25.484375 53.578125 
Q 30.03125 56 36.53125 56 
Q 37.453125 56 38.578125 55.875 
Q 39.703125 55.765625 41.0625 55.515625 
z
" id="DejaVuSans-72"/>
                        <path d="M 30.609375 48.390625
Q 23.390625 48.390625 19.1875 42.75 
Q 14.984375 37.109375 14.984375 27.296875 
Q 14.984375 17.484375 19.15625 11.84375 
Q 23.34375 6.203125 30.609375 6.203125 
Q 37.796875 6.203125 41.984375 11.859375 
Q 46.1875 17.53125 46.1875 27.296875 
Q 46.1875 37.015625 41.984375 42.703125 
Q 37.796875 48.390625 30.609375 48.390625 
z
M 30.609375 56 
Q 42.328125 56 49.015625 48.375 
Q 55.71875 40.765625 55.71875 27.296875 
Q 55.71875 13.875 49.015625 6.21875 
Q 42.328125 -1.421875 30.609375 -1.421875 
Q 18.84375 -1.421875 12.171875 6.21875 
Q 5.515625 13.875 5.515625 27.296875 
Q 5.515625 40.765625 12.171875 48.375 
Q 18.84375 56 30.609375 56 
z
" id="DejaVuSans-6f"/>
                        <path d="M 8.5 21.578125
L 8.5 54.6875 
L 17.484375 54.6875 
L 17.484375 21.921875 
Q 17.484375 14.15625 20.5 10.265625 
Q 23.53125 6.390625 29.59375 6.390625 
Q 36.859375 6.390625 41.078125 11.03125 
Q 45.3125 15.671875 45.3125 23.6875 
L 45.3125 54.6875 
L 54.296875 54.6875 
L 54.296875 0 
L 45.3125 0 
L 45.3125 8.40625 
Q 42.046875 3.421875 37.71875 1 
Q 33.40625 -1.421875 27.6875 -1.421875 
Q 18.265625 -1.421875 13.375 4.4375 
Q 8.5 10.296875 8.5 21.578125 
z
M 31.109375 56 
z
" id="DejaVuSans-75"/>
                        <path d="M 45.40625 46.390625
L 45.40625 75.984375 
L 54.390625 75.984375 
L 54.390625 0 
L 45.40625 0 
L 45.40625 8.203125 
Q 42.578125 3.328125 38.25 0.953125 
Q 33.9375 -1.421875 27.875 -1.421875 
Q 17.96875 -1.421875 11.734375 6.484375 
Q 5.515625 14.40625 5.515625 27.296875 
Q 5.515625 40.1875 11.734375 48.09375 
Q 17.96875 56 27.875 56 
Q 33.9375 56 38.25 53.625 
Q 42.578125 51.265625 45.40625 46.390625 
z
M 14.796875 27.296875 
Q 14.796875 17.390625 18.875 11.75 
Q 22.953125 6.109375 30.078125 6.109375 
Q 37.203125 6.109375 41.296875 11.75 
Q 45.40625 17.390625 45.40625 27.296875 
Q 45.40625 37.203125 41.296875 42.84375 
Q 37.203125 48.484375 30.078125 48.484375 
Q 22.953125 48.484375 18.875 42.84375 
Q 14.796875 37.203125 14.796875 27.296875 
z
" id="DejaVuSans-64"/>
                    </defs>
                    <g transform="translate(346.355938 72.748562)scale(0.1 -0.1)">
                        <use xlink:href="#DejaVuSans-62"/>
                        <use x="63.476562" xlink:href="#DejaVuSans-61"/>
                        <use x="124.755859" xlink:href="#DejaVuSans-63"/>
                        <use x="179.736328" xlink:href="#DejaVuSans-6b"/>
                        <use x="237.646484" xlink:href="#DejaVuSans-67"/>
                        <use x="301.123047" xlink:href="#DejaVuSans-72"/>
                        <use x="342.205078" xlink:href="#DejaVuSans-6f"/>
                        <use x="403.386719" xlink:href="#DejaVuSans-75"/>
                        <use x="466.765625" xlink:href="#DejaVuSans-6e"/>
                        <use x="530.144531" xlink:href="#DejaVuSans-64"/>
                    </g>
                </g>
            </g>
        </g>
    </g>
    <defs>
        <clipPath id="p8a84737a22">
            <rect height="266.112" width="357.12" x="57.6" y="41.472"/>
        </clipPath>
    </defs>
</svg>
